%TF.GenerationSoftware,KiCad,Pcbnew,9.0.1*%
%TF.CreationDate,2025-09-23T20:37:32+02:00*%
%TF.ProjectId,blikac-smd,626c696b-6163-42d7-936d-642e6b696361,rev?*%
%TF.SameCoordinates,Original*%
%TF.FileFunction,Drillmap*%
%TF.FilePolarity,Positive*%
%FSLAX45Y45*%
G04 Gerber Fmt 4.5, Leading zero omitted, Abs format (unit mm)*
G04 Created by KiCad (PCBNEW 9.0.1) date 2025-09-23 20:37:32*
%MOMM*%
%LPD*%
G01*
G04 APERTURE LIST*
%ADD10C,0.050000*%
%ADD11C,0.200000*%
G04 APERTURE END LIST*
D10*
X12040000Y-6540000D02*
X15800000Y-6540000D01*
X15800000Y-8820000D01*
X12040000Y-8820000D01*
X12040000Y-6540000D01*
D11*
X12298277Y-9133984D02*
X12298277Y-8933984D01*
X12298277Y-8933984D02*
X12345896Y-8933984D01*
X12345896Y-8933984D02*
X12374467Y-8943508D01*
X12374467Y-8943508D02*
X12393515Y-8962555D01*
X12393515Y-8962555D02*
X12403039Y-8981603D01*
X12403039Y-8981603D02*
X12412562Y-9019698D01*
X12412562Y-9019698D02*
X12412562Y-9048270D01*
X12412562Y-9048270D02*
X12403039Y-9086365D01*
X12403039Y-9086365D02*
X12393515Y-9105412D01*
X12393515Y-9105412D02*
X12374467Y-9124460D01*
X12374467Y-9124460D02*
X12345896Y-9133984D01*
X12345896Y-9133984D02*
X12298277Y-9133984D01*
X12498277Y-9133984D02*
X12498277Y-9000650D01*
X12498277Y-9038746D02*
X12507801Y-9019698D01*
X12507801Y-9019698D02*
X12517324Y-9010174D01*
X12517324Y-9010174D02*
X12536372Y-9000650D01*
X12536372Y-9000650D02*
X12555420Y-9000650D01*
X12622086Y-9133984D02*
X12622086Y-9000650D01*
X12622086Y-8933984D02*
X12612562Y-8943508D01*
X12612562Y-8943508D02*
X12622086Y-8953031D01*
X12622086Y-8953031D02*
X12631610Y-8943508D01*
X12631610Y-8943508D02*
X12622086Y-8933984D01*
X12622086Y-8933984D02*
X12622086Y-8953031D01*
X12745896Y-9133984D02*
X12726848Y-9124460D01*
X12726848Y-9124460D02*
X12717324Y-9105412D01*
X12717324Y-9105412D02*
X12717324Y-8933984D01*
X12850658Y-9133984D02*
X12831610Y-9124460D01*
X12831610Y-9124460D02*
X12822086Y-9105412D01*
X12822086Y-9105412D02*
X12822086Y-8933984D01*
X13079229Y-9133984D02*
X13079229Y-8933984D01*
X13079229Y-8933984D02*
X13145896Y-9076841D01*
X13145896Y-9076841D02*
X13212562Y-8933984D01*
X13212562Y-8933984D02*
X13212562Y-9133984D01*
X13393515Y-9133984D02*
X13393515Y-9029222D01*
X13393515Y-9029222D02*
X13383991Y-9010174D01*
X13383991Y-9010174D02*
X13364943Y-9000650D01*
X13364943Y-9000650D02*
X13326848Y-9000650D01*
X13326848Y-9000650D02*
X13307801Y-9010174D01*
X13393515Y-9124460D02*
X13374467Y-9133984D01*
X13374467Y-9133984D02*
X13326848Y-9133984D01*
X13326848Y-9133984D02*
X13307801Y-9124460D01*
X13307801Y-9124460D02*
X13298277Y-9105412D01*
X13298277Y-9105412D02*
X13298277Y-9086365D01*
X13298277Y-9086365D02*
X13307801Y-9067317D01*
X13307801Y-9067317D02*
X13326848Y-9057793D01*
X13326848Y-9057793D02*
X13374467Y-9057793D01*
X13374467Y-9057793D02*
X13393515Y-9048270D01*
X13488753Y-9000650D02*
X13488753Y-9200650D01*
X13488753Y-9010174D02*
X13507801Y-9000650D01*
X13507801Y-9000650D02*
X13545896Y-9000650D01*
X13545896Y-9000650D02*
X13564943Y-9010174D01*
X13564943Y-9010174D02*
X13574467Y-9019698D01*
X13574467Y-9019698D02*
X13583991Y-9038746D01*
X13583991Y-9038746D02*
X13583991Y-9095889D01*
X13583991Y-9095889D02*
X13574467Y-9114936D01*
X13574467Y-9114936D02*
X13564943Y-9124460D01*
X13564943Y-9124460D02*
X13545896Y-9133984D01*
X13545896Y-9133984D02*
X13507801Y-9133984D01*
X13507801Y-9133984D02*
X13488753Y-9124460D01*
X13669705Y-9114936D02*
X13679229Y-9124460D01*
X13679229Y-9124460D02*
X13669705Y-9133984D01*
X13669705Y-9133984D02*
X13660182Y-9124460D01*
X13660182Y-9124460D02*
X13669705Y-9114936D01*
X13669705Y-9114936D02*
X13669705Y-9133984D01*
X13669705Y-9010174D02*
X13679229Y-9019698D01*
X13679229Y-9019698D02*
X13669705Y-9029222D01*
X13669705Y-9029222D02*
X13660182Y-9019698D01*
X13660182Y-9019698D02*
X13669705Y-9010174D01*
X13669705Y-9010174D02*
X13669705Y-9029222D01*
M02*
