G04 #@! TF.GenerationSoftware,KiCad,Pcbnew,9.0.1*
G04 #@! TF.CreationDate,2025-09-23T20:37:19+02:00*
G04 #@! TF.ProjectId,blikac-smd,626c696b-6163-42d7-936d-642e6b696361,rev?*
G04 #@! TF.SameCoordinates,Original*
G04 #@! TF.FileFunction,Copper,L1,Top*
G04 #@! TF.FilePolarity,Positive*
%FSLAX46Y46*%
G04 Gerber Fmt 4.6, Leading zero omitted, Abs format (unit mm)*
G04 Created by KiCad (PCBNEW 9.0.1) date 2025-09-23 20:37:19*
%MOMM*%
%LPD*%
G01*
G04 APERTURE LIST*
G04 Aperture macros list*
%AMRoundRect*
0 Rectangle with rounded corners*
0 $1 Rounding radius*
0 $2 $3 $4 $5 $6 $7 $8 $9 X,Y pos of 4 corners*
0 Add a 4 corners polygon primitive as box body*
4,1,4,$2,$3,$4,$5,$6,$7,$8,$9,$2,$3,0*
0 Add four circle primitives for the rounded corners*
1,1,$1+$1,$2,$3*
1,1,$1+$1,$4,$5*
1,1,$1+$1,$6,$7*
1,1,$1+$1,$8,$9*
0 Add four rect primitives between the rounded corners*
20,1,$1+$1,$2,$3,$4,$5,0*
20,1,$1+$1,$4,$5,$6,$7,0*
20,1,$1+$1,$6,$7,$8,$9,0*
20,1,$1+$1,$8,$9,$2,$3,0*%
G04 Aperture macros list end*
%ADD10C,0.200000*%
G04 #@! TA.AperFunction,NonConductor*
%ADD11C,0.200000*%
G04 #@! TD*
G04 #@! TA.AperFunction,SMDPad,CuDef*
%ADD12RoundRect,0.250000X-0.625000X0.400000X-0.625000X-0.400000X0.625000X-0.400000X0.625000X0.400000X0*%
G04 #@! TD*
G04 #@! TA.AperFunction,SMDPad,CuDef*
%ADD13RoundRect,0.250000X0.625000X-0.400000X0.625000X0.400000X-0.625000X0.400000X-0.625000X-0.400000X0*%
G04 #@! TD*
G04 #@! TA.AperFunction,ComponentPad*
%ADD14R,2.000000X2.000000*%
G04 #@! TD*
G04 #@! TA.AperFunction,SMDPad,CuDef*
%ADD15RoundRect,0.250001X0.624999X-0.462499X0.624999X0.462499X-0.624999X0.462499X-0.624999X-0.462499X0*%
G04 #@! TD*
G04 #@! TA.AperFunction,SMDPad,CuDef*
%ADD16RoundRect,0.250000X0.400000X0.625000X-0.400000X0.625000X-0.400000X-0.625000X0.400000X-0.625000X0*%
G04 #@! TD*
G04 #@! TA.AperFunction,SMDPad,CuDef*
%ADD17RoundRect,0.250001X-0.462499X-0.624999X0.462499X-0.624999X0.462499X0.624999X-0.462499X0.624999X0*%
G04 #@! TD*
G04 #@! TA.AperFunction,ComponentPad*
%ADD18R,1.700000X1.700000*%
G04 #@! TD*
G04 #@! TA.AperFunction,ComponentPad*
%ADD19C,1.700000*%
G04 #@! TD*
G04 #@! TA.AperFunction,SMDPad,CuDef*
%ADD20RoundRect,0.150000X-0.825000X-0.150000X0.825000X-0.150000X0.825000X0.150000X-0.825000X0.150000X0*%
G04 #@! TD*
G04 #@! TA.AperFunction,SMDPad,CuDef*
%ADD21RoundRect,0.250000X0.412500X0.650000X-0.412500X0.650000X-0.412500X-0.650000X0.412500X-0.650000X0*%
G04 #@! TD*
G04 #@! TA.AperFunction,SMDPad,CuDef*
%ADD22RoundRect,0.200000X-0.200000X0.750000X-0.200000X-0.750000X0.200000X-0.750000X0.200000X0.750000X0*%
G04 #@! TD*
G04 #@! TA.AperFunction,SMDPad,CuDef*
%ADD23RoundRect,0.200000X0.200000X-0.750000X0.200000X0.750000X-0.200000X0.750000X-0.200000X-0.750000X0*%
G04 #@! TD*
G04 #@! TA.AperFunction,SMDPad,CuDef*
%ADD24R,0.400000X1.350000*%
G04 #@! TD*
G04 #@! TA.AperFunction,HeatsinkPad*
%ADD25O,1.200000X1.900000*%
G04 #@! TD*
G04 #@! TA.AperFunction,SMDPad,CuDef*
%ADD26R,1.200000X1.900000*%
G04 #@! TD*
G04 #@! TA.AperFunction,HeatsinkPad*
%ADD27C,1.450000*%
G04 #@! TD*
G04 #@! TA.AperFunction,SMDPad,CuDef*
%ADD28R,1.500000X1.900000*%
G04 #@! TD*
G04 #@! TA.AperFunction,SMDPad,CuDef*
%ADD29RoundRect,0.150000X-0.512500X-0.150000X0.512500X-0.150000X0.512500X0.150000X-0.512500X0.150000X0*%
G04 #@! TD*
G04 #@! TA.AperFunction,SMDPad,CuDef*
%ADD30RoundRect,0.250000X-0.400000X-0.625000X0.400000X-0.625000X0.400000X0.625000X-0.400000X0.625000X0*%
G04 #@! TD*
G04 #@! TA.AperFunction,SMDPad,CuDef*
%ADD31R,1.550000X1.300000*%
G04 #@! TD*
G04 #@! TA.AperFunction,ViaPad*
%ADD32C,0.700000*%
G04 #@! TD*
G04 #@! TA.AperFunction,Conductor*
%ADD33C,0.400000*%
G04 #@! TD*
G04 #@! TA.AperFunction,Conductor*
%ADD34C,0.200000*%
G04 #@! TD*
G04 APERTURE END LIST*
D10*
D11*
X154426816Y-66267219D02*
X154998244Y-66267219D01*
X154712530Y-67267219D02*
X154712530Y-66267219D01*
X155522054Y-66267219D02*
X155712530Y-66267219D01*
X155712530Y-66267219D02*
X155807768Y-66314838D01*
X155807768Y-66314838D02*
X155903006Y-66410076D01*
X155903006Y-66410076D02*
X155950625Y-66600552D01*
X155950625Y-66600552D02*
X155950625Y-66933885D01*
X155950625Y-66933885D02*
X155903006Y-67124361D01*
X155903006Y-67124361D02*
X155807768Y-67219600D01*
X155807768Y-67219600D02*
X155712530Y-67267219D01*
X155712530Y-67267219D02*
X155522054Y-67267219D01*
X155522054Y-67267219D02*
X155426816Y-67219600D01*
X155426816Y-67219600D02*
X155331578Y-67124361D01*
X155331578Y-67124361D02*
X155283959Y-66933885D01*
X155283959Y-66933885D02*
X155283959Y-66600552D01*
X155283959Y-66600552D02*
X155331578Y-66410076D01*
X155331578Y-66410076D02*
X155426816Y-66314838D01*
X155426816Y-66314838D02*
X155522054Y-66267219D01*
X156379197Y-67267219D02*
X156379197Y-66267219D01*
X156379197Y-66267219D02*
X156760149Y-66267219D01*
X156760149Y-66267219D02*
X156855387Y-66314838D01*
X156855387Y-66314838D02*
X156903006Y-66362457D01*
X156903006Y-66362457D02*
X156950625Y-66457695D01*
X156950625Y-66457695D02*
X156950625Y-66600552D01*
X156950625Y-66600552D02*
X156903006Y-66695790D01*
X156903006Y-66695790D02*
X156855387Y-66743409D01*
X156855387Y-66743409D02*
X156760149Y-66791028D01*
X156760149Y-66791028D02*
X156379197Y-66791028D01*
D12*
X129600000Y-75100000D03*
X129600000Y-78200000D03*
D13*
X140800000Y-78100000D03*
X140800000Y-75000000D03*
D14*
X126000000Y-86400000D03*
D15*
X143200000Y-78087500D03*
X143200000Y-75112500D03*
D16*
X137550000Y-81200000D03*
X134450000Y-81200000D03*
D14*
X122800000Y-86400000D03*
D13*
X122400000Y-76600000D03*
X122400000Y-73500000D03*
X130800000Y-73100000D03*
X130800000Y-70000000D03*
D17*
X122512500Y-79650000D03*
X125487500Y-79650000D03*
D18*
X132060000Y-67200000D03*
D19*
X134600000Y-67200000D03*
X137140000Y-67200000D03*
X139680000Y-67200000D03*
X142220000Y-67200000D03*
X144760000Y-67200000D03*
D13*
X145800000Y-73150000D03*
X145800000Y-70050000D03*
D20*
X133325000Y-70990000D03*
X133325000Y-72260000D03*
X133325000Y-73530000D03*
X133325000Y-74800000D03*
X133325000Y-76070000D03*
X133325000Y-77340000D03*
X133325000Y-78610000D03*
X138275000Y-78610000D03*
X138275000Y-77340000D03*
X138275000Y-76070000D03*
X138275000Y-74800000D03*
X138275000Y-73530000D03*
X138275000Y-72260000D03*
X138275000Y-70990000D03*
D21*
X125562500Y-82250000D03*
X122437500Y-82250000D03*
D22*
X143750000Y-83600000D03*
X141850000Y-83600000D03*
X142800000Y-86600000D03*
D15*
X148400000Y-78087500D03*
X148400000Y-75112500D03*
D13*
X156200000Y-73150000D03*
X156200000Y-70050000D03*
D23*
X131250000Y-86700000D03*
X133150000Y-86700000D03*
X132200000Y-83700000D03*
D12*
X139600000Y-83450000D03*
X139600000Y-86550000D03*
D24*
X126400000Y-69662500D03*
X125750000Y-69662500D03*
X125100000Y-69662500D03*
X124450000Y-69662500D03*
X123800000Y-69662500D03*
D25*
X128600000Y-66962500D03*
D26*
X128000000Y-66962500D03*
D27*
X127600000Y-69662500D03*
D28*
X126100000Y-66962500D03*
X124100000Y-66962500D03*
D27*
X122600000Y-69662500D03*
D26*
X122200000Y-66962500D03*
D25*
X121600000Y-66962500D03*
D13*
X153600000Y-73150000D03*
X153600000Y-70050000D03*
X148400000Y-73150000D03*
X148400000Y-70050000D03*
D21*
X127762500Y-72650000D03*
X124637500Y-72650000D03*
D22*
X137350000Y-83700000D03*
X135450000Y-83700000D03*
X136400000Y-86700000D03*
D15*
X151000000Y-78087500D03*
X151000000Y-75112500D03*
D29*
X124925000Y-75350000D03*
X124925000Y-76300000D03*
X124925000Y-77250000D03*
X127200000Y-77250000D03*
X127200000Y-75350000D03*
D15*
X145800000Y-78087500D03*
X145800000Y-75112500D03*
D13*
X143200000Y-73150000D03*
X143200000Y-70050000D03*
X151000000Y-73150000D03*
X151000000Y-70050000D03*
D30*
X140650000Y-80400000D03*
X143750000Y-80400000D03*
D15*
X153600000Y-78087500D03*
X153600000Y-75112500D03*
D31*
X146420000Y-80750000D03*
X154380000Y-80750000D03*
X146420000Y-85250000D03*
X154380000Y-85250000D03*
D15*
X156200000Y-78087500D03*
X156200000Y-75112500D03*
D13*
X128800000Y-85600000D03*
X128800000Y-82500000D03*
D32*
X128000000Y-74200000D03*
X127800000Y-76600000D03*
X123400000Y-71600000D03*
X126200000Y-76200000D03*
X139800000Y-70600000D03*
X129600000Y-79200000D03*
X134400000Y-83200000D03*
X141400000Y-76800000D03*
X141600000Y-80400000D03*
X122400000Y-83400000D03*
X131200000Y-75200000D03*
X133000000Y-79600000D03*
X131200000Y-79600000D03*
X134600000Y-71200000D03*
X134749000Y-73800000D03*
X142400000Y-79800000D03*
X130901000Y-71723265D03*
X136000000Y-69200000D03*
X139200000Y-69000000D03*
X135000000Y-86800000D03*
X129400000Y-87200000D03*
X128800000Y-83800000D03*
X144400000Y-68800000D03*
X145800000Y-68800000D03*
X148400000Y-68800000D03*
X139900000Y-76300000D03*
X151000000Y-68800000D03*
X141400000Y-73600000D03*
X135000000Y-77000000D03*
X153600000Y-68800000D03*
X152200000Y-71400000D03*
X135000000Y-76000000D03*
X156200000Y-68800000D03*
D33*
X127800000Y-76600000D02*
X127200000Y-77200000D01*
X126150000Y-79650000D02*
X127200000Y-78600000D01*
X127200000Y-77200000D02*
X127200000Y-77250000D01*
X127762500Y-73962500D02*
X128000000Y-74200000D01*
X127762500Y-72650000D02*
X127762500Y-73962500D01*
X126400000Y-71287500D02*
X127762500Y-72650000D01*
X125487500Y-79650000D02*
X126150000Y-79650000D01*
X126400000Y-69500000D02*
X126400000Y-71287500D01*
X127200000Y-78600000D02*
X127200000Y-77250000D01*
X143200000Y-78087500D02*
X141912500Y-76800000D01*
D34*
X140650000Y-80400000D02*
X141600000Y-80400000D01*
X135450000Y-83700000D02*
X134950000Y-83200000D01*
X122437500Y-82250000D02*
X122437500Y-83362500D01*
X129600000Y-78200000D02*
X129600000Y-79200000D01*
X126100000Y-76300000D02*
X126200000Y-76200000D01*
X139410000Y-70990000D02*
X139800000Y-70600000D01*
X124100000Y-66800000D02*
X126100000Y-66800000D01*
X126100000Y-66800000D02*
X128600000Y-66800000D01*
X122437500Y-83362500D02*
X122400000Y-83400000D01*
X123800000Y-69500000D02*
X122600000Y-69500000D01*
X138275000Y-70990000D02*
X139410000Y-70990000D01*
X124637500Y-72650000D02*
X124450000Y-72650000D01*
X124925000Y-76300000D02*
X126100000Y-76300000D01*
X124450000Y-72650000D02*
X123400000Y-71600000D01*
X124637500Y-72650000D02*
X124637500Y-72437500D01*
D33*
X141912500Y-76800000D02*
X141400000Y-76800000D01*
X156200000Y-78087500D02*
X143200000Y-78087500D01*
D34*
X124100000Y-66800000D02*
X121600000Y-66800000D01*
X134950000Y-83200000D02*
X134400000Y-83200000D01*
D33*
X131200000Y-82700000D02*
X132200000Y-83700000D01*
X131200000Y-79600000D02*
X131200000Y-82700000D01*
D34*
X134390000Y-70990000D02*
X134600000Y-71200000D01*
D33*
X132060000Y-70000000D02*
X132060000Y-70860000D01*
D34*
X139300000Y-79600000D02*
X133000000Y-79600000D01*
X140800000Y-78100000D02*
X139300000Y-79600000D01*
D33*
X132060000Y-70860000D02*
X132200000Y-71000000D01*
X130800000Y-70000000D02*
X132060000Y-70000000D01*
X132210000Y-70990000D02*
X133325000Y-70990000D01*
X132060000Y-67200000D02*
X132060000Y-70000000D01*
D34*
X133325000Y-70990000D02*
X134390000Y-70990000D01*
D33*
X132200000Y-71000000D02*
X132210000Y-70990000D01*
X131200000Y-75200000D02*
X131200000Y-79600000D01*
D34*
X122400000Y-76600000D02*
X122400000Y-79537500D01*
X122400000Y-79537500D02*
X122512500Y-79650000D01*
X139600000Y-86550000D02*
X139850000Y-86550000D01*
X139850000Y-86550000D02*
X141850000Y-84550000D01*
X141850000Y-84550000D02*
X141850000Y-83800000D01*
X134530000Y-73530000D02*
X133325000Y-73530000D01*
X143150000Y-79800000D02*
X143750000Y-80400000D01*
X143750000Y-83800000D02*
X143750000Y-80400000D01*
X134749000Y-73749000D02*
X134530000Y-73530000D01*
X142400000Y-79800000D02*
X143150000Y-79800000D01*
X134749000Y-73800000D02*
X134749000Y-73749000D01*
X154380000Y-85250000D02*
X146420000Y-85250000D01*
X142800000Y-86800000D02*
X144870000Y-86800000D01*
X144870000Y-86800000D02*
X146420000Y-85250000D01*
X143200000Y-75112500D02*
X143200000Y-73150000D01*
X145800000Y-75112500D02*
X145800000Y-73150000D01*
X148400000Y-75112500D02*
X148400000Y-73150000D01*
X151000000Y-75112500D02*
X151000000Y-73150000D01*
X153600000Y-75112500D02*
X153600000Y-73150000D01*
X156200000Y-75112500D02*
X156200000Y-73150000D01*
X133325000Y-74800000D02*
X134800000Y-74800000D01*
X130800000Y-73100000D02*
X130800000Y-71824265D01*
X135399000Y-74201000D02*
X135399000Y-69833900D01*
X130800000Y-71824265D02*
X130901000Y-71723265D01*
X134800000Y-74800000D02*
X135399000Y-74201000D01*
X134600000Y-69034900D02*
X134600000Y-67200000D01*
X135399000Y-69833900D02*
X134600000Y-69034900D01*
X133325000Y-78610000D02*
X134390000Y-78610000D01*
X135800000Y-77200000D02*
X135800000Y-70000000D01*
X136000000Y-69800000D02*
X136000000Y-69200000D01*
X135800000Y-70000000D02*
X136000000Y-69800000D01*
X134390000Y-78610000D02*
X135800000Y-77200000D01*
X136600000Y-77207099D02*
X136399000Y-77006099D01*
X136600000Y-70232900D02*
X136600000Y-69800000D01*
X136600000Y-69800000D02*
X137200000Y-69200000D01*
X138330346Y-68549000D02*
X138331000Y-68549000D01*
X137949000Y-68931000D02*
X137949000Y-68930346D01*
X137200000Y-69200000D02*
X137680000Y-69200000D01*
X136399000Y-77006099D02*
X136399000Y-70433900D01*
X136600000Y-77909999D02*
X136600000Y-77207099D01*
X137949000Y-68930346D02*
X138330346Y-68549000D01*
X137680000Y-69200000D02*
X137949000Y-68931000D01*
X138275000Y-78610000D02*
X137300001Y-78610000D01*
X136399000Y-70433900D02*
X136600000Y-70232900D01*
X137300001Y-78610000D02*
X136600000Y-77909999D01*
X138331000Y-68549000D02*
X139680000Y-67200000D01*
X140130346Y-77149000D02*
X138466000Y-77149000D01*
X136800000Y-70600000D02*
X136800000Y-76839999D01*
X137300001Y-77340000D02*
X138275000Y-77340000D01*
X140800000Y-75000000D02*
X141000000Y-75200000D01*
X137011000Y-70389000D02*
X136800000Y-70600000D01*
X137411000Y-70389000D02*
X137011000Y-70389000D01*
X136800000Y-76839999D02*
X137300001Y-77340000D01*
X141000000Y-76279346D02*
X140130346Y-77149000D01*
X138800000Y-69000000D02*
X137411000Y-70389000D01*
X138466000Y-77149000D02*
X138275000Y-77340000D01*
X139200000Y-69000000D02*
X138800000Y-69000000D01*
X141000000Y-75200000D02*
X141000000Y-76279346D01*
X135100000Y-86700000D02*
X135000000Y-86800000D01*
X131250000Y-86700000D02*
X130750000Y-87200000D01*
X128800000Y-82500000D02*
X128800000Y-83800000D01*
X136400000Y-86700000D02*
X135100000Y-86700000D01*
X130750000Y-87200000D02*
X129400000Y-87200000D01*
D33*
X143344516Y-85200000D02*
X142800000Y-84655484D01*
X142800000Y-82600000D02*
X142449000Y-82249000D01*
X124000000Y-78175000D02*
X124000000Y-82200000D01*
X130249000Y-85051000D02*
X129700000Y-85600000D01*
X124925000Y-77250000D02*
X124000000Y-78175000D01*
X144400000Y-85200000D02*
X143344516Y-85200000D01*
X124000000Y-82200000D02*
X124000000Y-84400000D01*
X146420000Y-83180000D02*
X144400000Y-85200000D01*
X128000000Y-86400000D02*
X128800000Y-85600000D01*
X142449000Y-82249000D02*
X141395516Y-82249000D01*
X133200000Y-85051000D02*
X130249000Y-85051000D01*
X133150000Y-85101000D02*
X133200000Y-85051000D01*
X133150000Y-86700000D02*
X133150000Y-85101000D01*
X140876000Y-82768516D02*
X140876000Y-84324000D01*
X140876000Y-84324000D02*
X140149000Y-85051000D01*
X142800000Y-84655484D02*
X142800000Y-82600000D01*
X141395516Y-82249000D02*
X140876000Y-82768516D01*
X154380000Y-80750000D02*
X146420000Y-80750000D01*
X124000000Y-84400000D02*
X126000000Y-86400000D01*
X140149000Y-85051000D02*
X133200000Y-85051000D01*
X129700000Y-85600000D02*
X128800000Y-85600000D01*
X124050000Y-82250000D02*
X124000000Y-82200000D01*
X126000000Y-86400000D02*
X128000000Y-86400000D01*
X146420000Y-80750000D02*
X146420000Y-83180000D01*
X125562500Y-82250000D02*
X124050000Y-82250000D01*
D34*
X139600000Y-83450000D02*
X137600000Y-83450000D01*
X137350000Y-81400000D02*
X137550000Y-81200000D01*
X137350000Y-83700000D02*
X137350000Y-81400000D01*
X137600000Y-83450000D02*
X137350000Y-83700000D01*
X127200000Y-75350000D02*
X129350000Y-75350000D01*
X129350000Y-75350000D02*
X129600000Y-75100000D01*
X124925000Y-75350000D02*
X124250000Y-75350000D01*
X124250000Y-75350000D02*
X122400000Y-73500000D01*
X133400000Y-81200000D02*
X132049000Y-79849000D01*
X134450000Y-81200000D02*
X133400000Y-81200000D01*
X132049000Y-79849000D02*
X132049000Y-72471000D01*
X132260000Y-72260000D02*
X133325000Y-72260000D01*
X132049000Y-72471000D02*
X132260000Y-72260000D01*
X143200000Y-70000000D02*
X144400000Y-68800000D01*
X139340000Y-72260000D02*
X141550000Y-70050000D01*
X141550000Y-70050000D02*
X143200000Y-70050000D01*
X138275000Y-72260000D02*
X139340000Y-72260000D01*
X143200000Y-70050000D02*
X143200000Y-70000000D01*
X138275000Y-73530000D02*
X139270000Y-73530000D01*
X139270000Y-73530000D02*
X141600000Y-71200000D01*
X145800000Y-70050000D02*
X145800000Y-68800000D01*
X144650000Y-71200000D02*
X145800000Y-70050000D01*
X141600000Y-71200000D02*
X144650000Y-71200000D01*
X142199000Y-71601000D02*
X144816100Y-71601000D01*
X148400000Y-71000000D02*
X148400000Y-70050000D01*
X144816100Y-71601000D02*
X145217100Y-71200000D01*
X138275000Y-74800000D02*
X139000000Y-74800000D01*
X145217100Y-71200000D02*
X148200000Y-71200000D01*
X148200000Y-71200000D02*
X148400000Y-71000000D01*
X139000000Y-74800000D02*
X142199000Y-71601000D01*
X148400000Y-70050000D02*
X148400000Y-68800000D01*
X150400000Y-71600000D02*
X151000000Y-71000000D01*
X151000000Y-71000000D02*
X151000000Y-70050000D01*
X142536840Y-72002000D02*
X145598000Y-72002000D01*
X151000000Y-70050000D02*
X151000000Y-68800000D01*
X138275000Y-76070000D02*
X139249999Y-76070000D01*
X145598000Y-72002000D02*
X146000000Y-71600000D01*
X141400000Y-73138840D02*
X141400000Y-73600000D01*
X139900000Y-76300000D02*
X140000000Y-76400000D01*
X138275000Y-76070000D02*
X139670000Y-76070000D01*
X146000000Y-71600000D02*
X150400000Y-71600000D01*
X142536840Y-72002000D02*
X141400000Y-73138840D01*
X139670000Y-76070000D02*
X139900000Y-76300000D01*
X135000000Y-77000000D02*
X134660000Y-77340000D01*
X134660000Y-77340000D02*
X133325000Y-77340000D01*
X153600000Y-70050000D02*
X153600000Y-68800000D01*
X134930000Y-76070000D02*
X133325000Y-76070000D01*
X156200000Y-70050000D02*
X156200000Y-68800000D01*
X135000000Y-76000000D02*
X134930000Y-76070000D01*
X152200000Y-71400000D02*
X154850000Y-71400000D01*
X154850000Y-71400000D02*
X156200000Y-70050000D01*
M02*
