M48
; DRILL file {KiCad 9.0.1} date 2025-09-23T20:37:32+0200
; FORMAT={-:-/ absolute / metric / decimal}
; #@! TF.CreationDate,2025-09-23T20:37:32+02:00
; #@! TF.GenerationSoftware,Kicad,Pcbnew,9.0.1
; #@! TF.FileFunction,Plated,1,2,PTH
FMAT,2
METRIC
; #@! TA.AperFunction,Plated,PTH,ViaDrill
T1C0.300
; #@! TA.AperFunction,Plated,PTH,ComponentDrill
T2C0.600
; #@! TA.AperFunction,Plated,PTH,ComponentDrill
T3C0.850
; #@! TA.AperFunction,Plated,PTH,ComponentDrill
T4C1.000
%
G90
G05
T1
X122.4Y-83.4
X123.4Y-71.6
X126.2Y-76.2
X127.8Y-76.6
X128.0Y-74.2
X128.8Y-83.8
X129.4Y-87.2
X129.6Y-79.2
X130.901Y-71.723
X131.2Y-75.2
X131.2Y-79.6
X133.0Y-79.6
X134.4Y-83.2
X134.6Y-71.2
X134.749Y-73.8
X135.0Y-76.0
X135.0Y-77.0
X135.0Y-86.8
X136.0Y-69.2
X139.2Y-69.0
X139.8Y-70.6
X139.9Y-76.3
X141.4Y-73.6
X141.4Y-76.8
X141.6Y-80.4
X142.4Y-79.8
X144.4Y-68.8
X145.8Y-68.8
X148.4Y-68.8
X151.0Y-68.8
X152.2Y-71.4
X153.6Y-68.8
X156.2Y-68.8
T3
X122.6Y-69.662
X127.6Y-69.662
T4
X122.8Y-86.4
X126.0Y-86.4
X132.06Y-67.2
X134.6Y-67.2
X137.14Y-67.2
X139.68Y-67.2
X142.22Y-67.2
X144.76Y-67.2
T2
X121.6Y-67.312G85X121.6Y-66.612
G05
X128.6Y-66.612G85X128.6Y-67.312
G05
M30
