G04 #@! TF.GenerationSoftware,KiCad,Pcbnew,9.0.1*
G04 #@! TF.CreationDate,2025-09-23T20:37:19+02:00*
G04 #@! TF.ProjectId,blikac-smd,626c696b-6163-42d7-936d-642e6b696361,rev?*
G04 #@! TF.SameCoordinates,Original*
G04 #@! TF.FileFunction,Soldermask,Top*
G04 #@! TF.FilePolarity,Negative*
%FSLAX46Y46*%
G04 Gerber Fmt 4.6, Leading zero omitted, Abs format (unit mm)*
G04 Created by KiCad (PCBNEW 9.0.1) date 2025-09-23 20:37:19*
%MOMM*%
%LPD*%
G01*
G04 APERTURE LIST*
G04 Aperture macros list*
%AMRoundRect*
0 Rectangle with rounded corners*
0 $1 Rounding radius*
0 $2 $3 $4 $5 $6 $7 $8 $9 X,Y pos of 4 corners*
0 Add a 4 corners polygon primitive as box body*
4,1,4,$2,$3,$4,$5,$6,$7,$8,$9,$2,$3,0*
0 Add four circle primitives for the rounded corners*
1,1,$1+$1,$2,$3*
1,1,$1+$1,$4,$5*
1,1,$1+$1,$6,$7*
1,1,$1+$1,$8,$9*
0 Add four rect primitives between the rounded corners*
20,1,$1+$1,$2,$3,$4,$5,0*
20,1,$1+$1,$4,$5,$6,$7,0*
20,1,$1+$1,$6,$7,$8,$9,0*
20,1,$1+$1,$8,$9,$2,$3,0*%
G04 Aperture macros list end*
%ADD10RoundRect,0.250000X-0.625000X0.400000X-0.625000X-0.400000X0.625000X-0.400000X0.625000X0.400000X0*%
%ADD11RoundRect,0.250000X0.625000X-0.400000X0.625000X0.400000X-0.625000X0.400000X-0.625000X-0.400000X0*%
%ADD12R,2.000000X2.000000*%
%ADD13RoundRect,0.250001X0.624999X-0.462499X0.624999X0.462499X-0.624999X0.462499X-0.624999X-0.462499X0*%
%ADD14RoundRect,0.250000X0.400000X0.625000X-0.400000X0.625000X-0.400000X-0.625000X0.400000X-0.625000X0*%
%ADD15RoundRect,0.250001X-0.462499X-0.624999X0.462499X-0.624999X0.462499X0.624999X-0.462499X0.624999X0*%
%ADD16R,1.700000X1.700000*%
%ADD17C,1.700000*%
%ADD18RoundRect,0.150000X-0.825000X-0.150000X0.825000X-0.150000X0.825000X0.150000X-0.825000X0.150000X0*%
%ADD19RoundRect,0.250000X0.412500X0.650000X-0.412500X0.650000X-0.412500X-0.650000X0.412500X-0.650000X0*%
%ADD20RoundRect,0.200000X-0.200000X0.750000X-0.200000X-0.750000X0.200000X-0.750000X0.200000X0.750000X0*%
%ADD21RoundRect,0.200000X0.200000X-0.750000X0.200000X0.750000X-0.200000X0.750000X-0.200000X-0.750000X0*%
%ADD22R,0.400000X1.350000*%
%ADD23O,1.200000X1.900000*%
%ADD24R,1.200000X1.900000*%
%ADD25C,1.450000*%
%ADD26R,1.500000X1.900000*%
%ADD27RoundRect,0.150000X-0.512500X-0.150000X0.512500X-0.150000X0.512500X0.150000X-0.512500X0.150000X0*%
%ADD28RoundRect,0.250000X-0.400000X-0.625000X0.400000X-0.625000X0.400000X0.625000X-0.400000X0.625000X0*%
%ADD29R,1.550000X1.300000*%
G04 APERTURE END LIST*
D10*
X129600000Y-75100000D03*
X129600000Y-78200000D03*
D11*
X140800000Y-78100000D03*
X140800000Y-75000000D03*
D12*
X126000000Y-86400000D03*
D13*
X143200000Y-78087500D03*
X143200000Y-75112500D03*
D14*
X137550000Y-81200000D03*
X134450000Y-81200000D03*
D12*
X122800000Y-86400000D03*
D11*
X122400000Y-76600000D03*
X122400000Y-73500000D03*
X130800000Y-73100000D03*
X130800000Y-70000000D03*
D15*
X122512500Y-79650000D03*
X125487500Y-79650000D03*
D16*
X132060000Y-67200000D03*
D17*
X134600000Y-67200000D03*
X137140000Y-67200000D03*
X139680000Y-67200000D03*
X142220000Y-67200000D03*
X144760000Y-67200000D03*
D11*
X145800000Y-73150000D03*
X145800000Y-70050000D03*
D18*
X133325000Y-70990000D03*
X133325000Y-72260000D03*
X133325000Y-73530000D03*
X133325000Y-74800000D03*
X133325000Y-76070000D03*
X133325000Y-77340000D03*
X133325000Y-78610000D03*
X138275000Y-78610000D03*
X138275000Y-77340000D03*
X138275000Y-76070000D03*
X138275000Y-74800000D03*
X138275000Y-73530000D03*
X138275000Y-72260000D03*
X138275000Y-70990000D03*
D19*
X125562500Y-82250000D03*
X122437500Y-82250000D03*
D20*
X143750000Y-83600000D03*
X141850000Y-83600000D03*
X142800000Y-86600000D03*
D13*
X148400000Y-78087500D03*
X148400000Y-75112500D03*
D11*
X156200000Y-73150000D03*
X156200000Y-70050000D03*
D21*
X131250000Y-86700000D03*
X133150000Y-86700000D03*
X132200000Y-83700000D03*
D10*
X139600000Y-83450000D03*
X139600000Y-86550000D03*
D22*
X126400000Y-69662500D03*
X125750000Y-69662500D03*
X125100000Y-69662500D03*
X124450000Y-69662500D03*
X123800000Y-69662500D03*
D23*
X128600000Y-66962500D03*
D24*
X128000000Y-66962500D03*
D25*
X127600000Y-69662500D03*
D26*
X126100000Y-66962500D03*
X124100000Y-66962500D03*
D25*
X122600000Y-69662500D03*
D24*
X122200000Y-66962500D03*
D23*
X121600000Y-66962500D03*
D11*
X153600000Y-73150000D03*
X153600000Y-70050000D03*
X148400000Y-73150000D03*
X148400000Y-70050000D03*
D19*
X127762500Y-72650000D03*
X124637500Y-72650000D03*
D20*
X137350000Y-83700000D03*
X135450000Y-83700000D03*
X136400000Y-86700000D03*
D13*
X151000000Y-78087500D03*
X151000000Y-75112500D03*
D27*
X124925000Y-75350000D03*
X124925000Y-76300000D03*
X124925000Y-77250000D03*
X127200000Y-77250000D03*
X127200000Y-75350000D03*
D13*
X145800000Y-78087500D03*
X145800000Y-75112500D03*
D11*
X143200000Y-73150000D03*
X143200000Y-70050000D03*
X151000000Y-73150000D03*
X151000000Y-70050000D03*
D28*
X140650000Y-80400000D03*
X143750000Y-80400000D03*
D13*
X153600000Y-78087500D03*
X153600000Y-75112500D03*
D29*
X146420000Y-80750000D03*
X154380000Y-80750000D03*
X146420000Y-85250000D03*
X154380000Y-85250000D03*
D13*
X156200000Y-78087500D03*
X156200000Y-75112500D03*
D11*
X128800000Y-85600000D03*
X128800000Y-82500000D03*
M02*
