G04 #@! TF.GenerationSoftware,KiCad,Pcbnew,9.0.1*
G04 #@! TF.CreationDate,2025-09-23T20:37:19+02:00*
G04 #@! TF.ProjectId,blikac-smd,626c696b-6163-42d7-936d-642e6b696361,rev?*
G04 #@! TF.SameCoordinates,Original*
G04 #@! TF.FileFunction,Legend,Top*
G04 #@! TF.FilePolarity,Positive*
%FSLAX46Y46*%
G04 Gerber Fmt 4.6, Leading zero omitted, Abs format (unit mm)*
G04 Created by KiCad (PCBNEW 9.0.1) date 2025-09-23 20:37:19*
%MOMM*%
%LPD*%
G01*
G04 APERTURE LIST*
G04 Aperture macros list*
%AMRoundRect*
0 Rectangle with rounded corners*
0 $1 Rounding radius*
0 $2 $3 $4 $5 $6 $7 $8 $9 X,Y pos of 4 corners*
0 Add a 4 corners polygon primitive as box body*
4,1,4,$2,$3,$4,$5,$6,$7,$8,$9,$2,$3,0*
0 Add four circle primitives for the rounded corners*
1,1,$1+$1,$2,$3*
1,1,$1+$1,$4,$5*
1,1,$1+$1,$6,$7*
1,1,$1+$1,$8,$9*
0 Add four rect primitives between the rounded corners*
20,1,$1+$1,$2,$3,$4,$5,0*
20,1,$1+$1,$4,$5,$6,$7,0*
20,1,$1+$1,$6,$7,$8,$9,0*
20,1,$1+$1,$8,$9,$2,$3,0*%
G04 Aperture macros list end*
%ADD10C,0.100000*%
%ADD11C,0.240000*%
%ADD12C,0.200000*%
%ADD13C,0.150000*%
%ADD14C,0.120000*%
%ADD15RoundRect,0.250000X-0.625000X0.400000X-0.625000X-0.400000X0.625000X-0.400000X0.625000X0.400000X0*%
%ADD16RoundRect,0.250000X0.625000X-0.400000X0.625000X0.400000X-0.625000X0.400000X-0.625000X-0.400000X0*%
%ADD17R,2.000000X2.000000*%
%ADD18RoundRect,0.250001X0.624999X-0.462499X0.624999X0.462499X-0.624999X0.462499X-0.624999X-0.462499X0*%
%ADD19RoundRect,0.250000X0.400000X0.625000X-0.400000X0.625000X-0.400000X-0.625000X0.400000X-0.625000X0*%
%ADD20RoundRect,0.250001X-0.462499X-0.624999X0.462499X-0.624999X0.462499X0.624999X-0.462499X0.624999X0*%
%ADD21R,1.700000X1.700000*%
%ADD22C,1.700000*%
%ADD23RoundRect,0.150000X-0.825000X-0.150000X0.825000X-0.150000X0.825000X0.150000X-0.825000X0.150000X0*%
%ADD24RoundRect,0.250000X0.412500X0.650000X-0.412500X0.650000X-0.412500X-0.650000X0.412500X-0.650000X0*%
%ADD25RoundRect,0.200000X-0.200000X0.750000X-0.200000X-0.750000X0.200000X-0.750000X0.200000X0.750000X0*%
%ADD26RoundRect,0.200000X0.200000X-0.750000X0.200000X0.750000X-0.200000X0.750000X-0.200000X-0.750000X0*%
%ADD27R,0.400000X1.350000*%
%ADD28O,1.200000X1.900000*%
%ADD29R,1.200000X1.900000*%
%ADD30C,1.450000*%
%ADD31R,1.500000X1.900000*%
%ADD32RoundRect,0.150000X-0.512500X-0.150000X0.512500X-0.150000X0.512500X0.150000X-0.512500X0.150000X0*%
%ADD33RoundRect,0.250000X-0.400000X-0.625000X0.400000X-0.625000X0.400000X0.625000X-0.400000X0.625000X0*%
%ADD34R,1.550000X1.300000*%
G04 APERTURE END LIST*
D10*
X148800000Y-65800000D02*
X151600000Y-65800000D01*
X151600000Y-68200000D01*
X148800000Y-68200000D01*
X148800000Y-65800000D01*
D11*
X149515036Y-66719567D02*
X149776941Y-67452900D01*
X149776941Y-67452900D02*
X150038846Y-66719567D01*
X151034084Y-67452900D02*
X150405512Y-67452900D01*
X150719798Y-67452900D02*
X150719798Y-66352900D01*
X150719798Y-66352900D02*
X150615036Y-66510043D01*
X150615036Y-66510043D02*
X150510274Y-66614805D01*
X150510274Y-66614805D02*
X150405512Y-66667186D01*
D12*
X125503006Y-84343409D02*
X125645863Y-84391028D01*
X125645863Y-84391028D02*
X125693482Y-84438647D01*
X125693482Y-84438647D02*
X125741101Y-84533885D01*
X125741101Y-84533885D02*
X125741101Y-84676742D01*
X125741101Y-84676742D02*
X125693482Y-84771980D01*
X125693482Y-84771980D02*
X125645863Y-84819600D01*
X125645863Y-84819600D02*
X125550625Y-84867219D01*
X125550625Y-84867219D02*
X125169673Y-84867219D01*
X125169673Y-84867219D02*
X125169673Y-83867219D01*
X125169673Y-83867219D02*
X125503006Y-83867219D01*
X125503006Y-83867219D02*
X125598244Y-83914838D01*
X125598244Y-83914838D02*
X125645863Y-83962457D01*
X125645863Y-83962457D02*
X125693482Y-84057695D01*
X125693482Y-84057695D02*
X125693482Y-84152933D01*
X125693482Y-84152933D02*
X125645863Y-84248171D01*
X125645863Y-84248171D02*
X125598244Y-84295790D01*
X125598244Y-84295790D02*
X125503006Y-84343409D01*
X125503006Y-84343409D02*
X125169673Y-84343409D01*
X126169673Y-84486266D02*
X126931578Y-84486266D01*
X126550625Y-84867219D02*
X126550625Y-84105314D01*
X122303006Y-84343409D02*
X122445863Y-84391028D01*
X122445863Y-84391028D02*
X122493482Y-84438647D01*
X122493482Y-84438647D02*
X122541101Y-84533885D01*
X122541101Y-84533885D02*
X122541101Y-84676742D01*
X122541101Y-84676742D02*
X122493482Y-84771980D01*
X122493482Y-84771980D02*
X122445863Y-84819600D01*
X122445863Y-84819600D02*
X122350625Y-84867219D01*
X122350625Y-84867219D02*
X121969673Y-84867219D01*
X121969673Y-84867219D02*
X121969673Y-83867219D01*
X121969673Y-83867219D02*
X122303006Y-83867219D01*
X122303006Y-83867219D02*
X122398244Y-83914838D01*
X122398244Y-83914838D02*
X122445863Y-83962457D01*
X122445863Y-83962457D02*
X122493482Y-84057695D01*
X122493482Y-84057695D02*
X122493482Y-84152933D01*
X122493482Y-84152933D02*
X122445863Y-84248171D01*
X122445863Y-84248171D02*
X122398244Y-84295790D01*
X122398244Y-84295790D02*
X122303006Y-84343409D01*
X122303006Y-84343409D02*
X121969673Y-84343409D01*
X122969673Y-84486266D02*
X123731578Y-84486266D01*
D13*
X130633333Y-80254819D02*
X130300000Y-79778628D01*
X130061905Y-80254819D02*
X130061905Y-79254819D01*
X130061905Y-79254819D02*
X130442857Y-79254819D01*
X130442857Y-79254819D02*
X130538095Y-79302438D01*
X130538095Y-79302438D02*
X130585714Y-79350057D01*
X130585714Y-79350057D02*
X130633333Y-79445295D01*
X130633333Y-79445295D02*
X130633333Y-79588152D01*
X130633333Y-79588152D02*
X130585714Y-79683390D01*
X130585714Y-79683390D02*
X130538095Y-79731009D01*
X130538095Y-79731009D02*
X130442857Y-79778628D01*
X130442857Y-79778628D02*
X130061905Y-79778628D01*
X131585714Y-80254819D02*
X131014286Y-80254819D01*
X131300000Y-80254819D02*
X131300000Y-79254819D01*
X131300000Y-79254819D02*
X131204762Y-79397676D01*
X131204762Y-79397676D02*
X131109524Y-79492914D01*
X131109524Y-79492914D02*
X131014286Y-79540533D01*
X140854819Y-73242857D02*
X140378628Y-73576190D01*
X140854819Y-73814285D02*
X139854819Y-73814285D01*
X139854819Y-73814285D02*
X139854819Y-73433333D01*
X139854819Y-73433333D02*
X139902438Y-73338095D01*
X139902438Y-73338095D02*
X139950057Y-73290476D01*
X139950057Y-73290476D02*
X140045295Y-73242857D01*
X140045295Y-73242857D02*
X140188152Y-73242857D01*
X140188152Y-73242857D02*
X140283390Y-73290476D01*
X140283390Y-73290476D02*
X140331009Y-73338095D01*
X140331009Y-73338095D02*
X140378628Y-73433333D01*
X140378628Y-73433333D02*
X140378628Y-73814285D01*
X139950057Y-72861904D02*
X139902438Y-72814285D01*
X139902438Y-72814285D02*
X139854819Y-72719047D01*
X139854819Y-72719047D02*
X139854819Y-72480952D01*
X139854819Y-72480952D02*
X139902438Y-72385714D01*
X139902438Y-72385714D02*
X139950057Y-72338095D01*
X139950057Y-72338095D02*
X140045295Y-72290476D01*
X140045295Y-72290476D02*
X140140533Y-72290476D01*
X140140533Y-72290476D02*
X140283390Y-72338095D01*
X140283390Y-72338095D02*
X140854819Y-72909523D01*
X140854819Y-72909523D02*
X140854819Y-72290476D01*
X139854819Y-71671428D02*
X139854819Y-71576190D01*
X139854819Y-71576190D02*
X139902438Y-71480952D01*
X139902438Y-71480952D02*
X139950057Y-71433333D01*
X139950057Y-71433333D02*
X140045295Y-71385714D01*
X140045295Y-71385714D02*
X140235771Y-71338095D01*
X140235771Y-71338095D02*
X140473866Y-71338095D01*
X140473866Y-71338095D02*
X140664342Y-71385714D01*
X140664342Y-71385714D02*
X140759580Y-71433333D01*
X140759580Y-71433333D02*
X140807200Y-71480952D01*
X140807200Y-71480952D02*
X140854819Y-71576190D01*
X140854819Y-71576190D02*
X140854819Y-71671428D01*
X140854819Y-71671428D02*
X140807200Y-71766666D01*
X140807200Y-71766666D02*
X140759580Y-71814285D01*
X140759580Y-71814285D02*
X140664342Y-71861904D01*
X140664342Y-71861904D02*
X140473866Y-71909523D01*
X140473866Y-71909523D02*
X140235771Y-71909523D01*
X140235771Y-71909523D02*
X140045295Y-71861904D01*
X140045295Y-71861904D02*
X139950057Y-71814285D01*
X139950057Y-71814285D02*
X139902438Y-71766666D01*
X139902438Y-71766666D02*
X139854819Y-71671428D01*
X142757143Y-76869771D02*
X142757143Y-76269771D01*
X142757143Y-76269771D02*
X142900000Y-76269771D01*
X142900000Y-76269771D02*
X142985714Y-76298342D01*
X142985714Y-76298342D02*
X143042857Y-76355485D01*
X143042857Y-76355485D02*
X143071428Y-76412628D01*
X143071428Y-76412628D02*
X143100000Y-76526914D01*
X143100000Y-76526914D02*
X143100000Y-76612628D01*
X143100000Y-76612628D02*
X143071428Y-76726914D01*
X143071428Y-76726914D02*
X143042857Y-76784057D01*
X143042857Y-76784057D02*
X142985714Y-76841200D01*
X142985714Y-76841200D02*
X142900000Y-76869771D01*
X142900000Y-76869771D02*
X142757143Y-76869771D01*
X143300000Y-76269771D02*
X143671428Y-76269771D01*
X143671428Y-76269771D02*
X143471428Y-76498342D01*
X143471428Y-76498342D02*
X143557143Y-76498342D01*
X143557143Y-76498342D02*
X143614286Y-76526914D01*
X143614286Y-76526914D02*
X143642857Y-76555485D01*
X143642857Y-76555485D02*
X143671428Y-76612628D01*
X143671428Y-76612628D02*
X143671428Y-76755485D01*
X143671428Y-76755485D02*
X143642857Y-76812628D01*
X143642857Y-76812628D02*
X143614286Y-76841200D01*
X143614286Y-76841200D02*
X143557143Y-76869771D01*
X143557143Y-76869771D02*
X143385714Y-76869771D01*
X143385714Y-76869771D02*
X143328571Y-76841200D01*
X143328571Y-76841200D02*
X143300000Y-76812628D01*
X132433333Y-80654819D02*
X132100000Y-80178628D01*
X131861905Y-80654819D02*
X131861905Y-79654819D01*
X131861905Y-79654819D02*
X132242857Y-79654819D01*
X132242857Y-79654819D02*
X132338095Y-79702438D01*
X132338095Y-79702438D02*
X132385714Y-79750057D01*
X132385714Y-79750057D02*
X132433333Y-79845295D01*
X132433333Y-79845295D02*
X132433333Y-79988152D01*
X132433333Y-79988152D02*
X132385714Y-80083390D01*
X132385714Y-80083390D02*
X132338095Y-80131009D01*
X132338095Y-80131009D02*
X132242857Y-80178628D01*
X132242857Y-80178628D02*
X131861905Y-80178628D01*
X133338095Y-79654819D02*
X132861905Y-79654819D01*
X132861905Y-79654819D02*
X132814286Y-80131009D01*
X132814286Y-80131009D02*
X132861905Y-80083390D01*
X132861905Y-80083390D02*
X132957143Y-80035771D01*
X132957143Y-80035771D02*
X133195238Y-80035771D01*
X133195238Y-80035771D02*
X133290476Y-80083390D01*
X133290476Y-80083390D02*
X133338095Y-80131009D01*
X133338095Y-80131009D02*
X133385714Y-80226247D01*
X133385714Y-80226247D02*
X133385714Y-80464342D01*
X133385714Y-80464342D02*
X133338095Y-80559580D01*
X133338095Y-80559580D02*
X133290476Y-80607200D01*
X133290476Y-80607200D02*
X133195238Y-80654819D01*
X133195238Y-80654819D02*
X132957143Y-80654819D01*
X132957143Y-80654819D02*
X132861905Y-80607200D01*
X132861905Y-80607200D02*
X132814286Y-80559580D01*
X121833333Y-72254819D02*
X121500000Y-71778628D01*
X121261905Y-72254819D02*
X121261905Y-71254819D01*
X121261905Y-71254819D02*
X121642857Y-71254819D01*
X121642857Y-71254819D02*
X121738095Y-71302438D01*
X121738095Y-71302438D02*
X121785714Y-71350057D01*
X121785714Y-71350057D02*
X121833333Y-71445295D01*
X121833333Y-71445295D02*
X121833333Y-71588152D01*
X121833333Y-71588152D02*
X121785714Y-71683390D01*
X121785714Y-71683390D02*
X121738095Y-71731009D01*
X121738095Y-71731009D02*
X121642857Y-71778628D01*
X121642857Y-71778628D02*
X121261905Y-71778628D01*
X122214286Y-71350057D02*
X122261905Y-71302438D01*
X122261905Y-71302438D02*
X122357143Y-71254819D01*
X122357143Y-71254819D02*
X122595238Y-71254819D01*
X122595238Y-71254819D02*
X122690476Y-71302438D01*
X122690476Y-71302438D02*
X122738095Y-71350057D01*
X122738095Y-71350057D02*
X122785714Y-71445295D01*
X122785714Y-71445295D02*
X122785714Y-71540533D01*
X122785714Y-71540533D02*
X122738095Y-71683390D01*
X122738095Y-71683390D02*
X122166667Y-72254819D01*
X122166667Y-72254819D02*
X122785714Y-72254819D01*
X131069771Y-71935714D02*
X130784057Y-72135714D01*
X131069771Y-72278571D02*
X130469771Y-72278571D01*
X130469771Y-72278571D02*
X130469771Y-72050000D01*
X130469771Y-72050000D02*
X130498342Y-71992857D01*
X130498342Y-71992857D02*
X130526914Y-71964286D01*
X130526914Y-71964286D02*
X130584057Y-71935714D01*
X130584057Y-71935714D02*
X130669771Y-71935714D01*
X130669771Y-71935714D02*
X130726914Y-71964286D01*
X130726914Y-71964286D02*
X130755485Y-71992857D01*
X130755485Y-71992857D02*
X130784057Y-72050000D01*
X130784057Y-72050000D02*
X130784057Y-72278571D01*
X131069771Y-71364286D02*
X131069771Y-71707143D01*
X131069771Y-71535714D02*
X130469771Y-71535714D01*
X130469771Y-71535714D02*
X130555485Y-71592857D01*
X130555485Y-71592857D02*
X130612628Y-71650000D01*
X130612628Y-71650000D02*
X130641200Y-71707143D01*
X131069771Y-71078571D02*
X131069771Y-70964285D01*
X131069771Y-70964285D02*
X131041200Y-70907142D01*
X131041200Y-70907142D02*
X131012628Y-70878571D01*
X131012628Y-70878571D02*
X130926914Y-70821428D01*
X130926914Y-70821428D02*
X130812628Y-70792857D01*
X130812628Y-70792857D02*
X130584057Y-70792857D01*
X130584057Y-70792857D02*
X130526914Y-70821428D01*
X130526914Y-70821428D02*
X130498342Y-70850000D01*
X130498342Y-70850000D02*
X130469771Y-70907142D01*
X130469771Y-70907142D02*
X130469771Y-71021428D01*
X130469771Y-71021428D02*
X130498342Y-71078571D01*
X130498342Y-71078571D02*
X130526914Y-71107142D01*
X130526914Y-71107142D02*
X130584057Y-71135714D01*
X130584057Y-71135714D02*
X130726914Y-71135714D01*
X130726914Y-71135714D02*
X130784057Y-71107142D01*
X130784057Y-71107142D02*
X130812628Y-71078571D01*
X130812628Y-71078571D02*
X130841200Y-71021428D01*
X130841200Y-71021428D02*
X130841200Y-70907142D01*
X130841200Y-70907142D02*
X130812628Y-70850000D01*
X130812628Y-70850000D02*
X130784057Y-70821428D01*
X130784057Y-70821428D02*
X130726914Y-70792857D01*
X126661905Y-80254819D02*
X126661905Y-79254819D01*
X126661905Y-79254819D02*
X126900000Y-79254819D01*
X126900000Y-79254819D02*
X127042857Y-79302438D01*
X127042857Y-79302438D02*
X127138095Y-79397676D01*
X127138095Y-79397676D02*
X127185714Y-79492914D01*
X127185714Y-79492914D02*
X127233333Y-79683390D01*
X127233333Y-79683390D02*
X127233333Y-79826247D01*
X127233333Y-79826247D02*
X127185714Y-80016723D01*
X127185714Y-80016723D02*
X127138095Y-80111961D01*
X127138095Y-80111961D02*
X127042857Y-80207200D01*
X127042857Y-80207200D02*
X126900000Y-80254819D01*
X126900000Y-80254819D02*
X126661905Y-80254819D01*
X128185714Y-80254819D02*
X127614286Y-80254819D01*
X127900000Y-80254819D02*
X127900000Y-79254819D01*
X127900000Y-79254819D02*
X127804762Y-79397676D01*
X127804762Y-79397676D02*
X127709524Y-79492914D01*
X127709524Y-79492914D02*
X127614286Y-79540533D01*
X146866666Y-66054819D02*
X146866666Y-66769104D01*
X146866666Y-66769104D02*
X146819047Y-66911961D01*
X146819047Y-66911961D02*
X146723809Y-67007200D01*
X146723809Y-67007200D02*
X146580952Y-67054819D01*
X146580952Y-67054819D02*
X146485714Y-67054819D01*
X147295238Y-66150057D02*
X147342857Y-66102438D01*
X147342857Y-66102438D02*
X147438095Y-66054819D01*
X147438095Y-66054819D02*
X147676190Y-66054819D01*
X147676190Y-66054819D02*
X147771428Y-66102438D01*
X147771428Y-66102438D02*
X147819047Y-66150057D01*
X147819047Y-66150057D02*
X147866666Y-66245295D01*
X147866666Y-66245295D02*
X147866666Y-66340533D01*
X147866666Y-66340533D02*
X147819047Y-66483390D01*
X147819047Y-66483390D02*
X147247619Y-67054819D01*
X147247619Y-67054819D02*
X147866666Y-67054819D01*
X145700000Y-71869771D02*
X145500000Y-71584057D01*
X145357143Y-71869771D02*
X145357143Y-71269771D01*
X145357143Y-71269771D02*
X145585714Y-71269771D01*
X145585714Y-71269771D02*
X145642857Y-71298342D01*
X145642857Y-71298342D02*
X145671428Y-71326914D01*
X145671428Y-71326914D02*
X145700000Y-71384057D01*
X145700000Y-71384057D02*
X145700000Y-71469771D01*
X145700000Y-71469771D02*
X145671428Y-71526914D01*
X145671428Y-71526914D02*
X145642857Y-71555485D01*
X145642857Y-71555485D02*
X145585714Y-71584057D01*
X145585714Y-71584057D02*
X145357143Y-71584057D01*
X145985714Y-71869771D02*
X146100000Y-71869771D01*
X146100000Y-71869771D02*
X146157143Y-71841200D01*
X146157143Y-71841200D02*
X146185714Y-71812628D01*
X146185714Y-71812628D02*
X146242857Y-71726914D01*
X146242857Y-71726914D02*
X146271428Y-71612628D01*
X146271428Y-71612628D02*
X146271428Y-71384057D01*
X146271428Y-71384057D02*
X146242857Y-71326914D01*
X146242857Y-71326914D02*
X146214286Y-71298342D01*
X146214286Y-71298342D02*
X146157143Y-71269771D01*
X146157143Y-71269771D02*
X146042857Y-71269771D01*
X146042857Y-71269771D02*
X145985714Y-71298342D01*
X145985714Y-71298342D02*
X145957143Y-71326914D01*
X145957143Y-71326914D02*
X145928571Y-71384057D01*
X145928571Y-71384057D02*
X145928571Y-71526914D01*
X145928571Y-71526914D02*
X145957143Y-71584057D01*
X145957143Y-71584057D02*
X145985714Y-71612628D01*
X145985714Y-71612628D02*
X146042857Y-71641200D01*
X146042857Y-71641200D02*
X146157143Y-71641200D01*
X146157143Y-71641200D02*
X146214286Y-71612628D01*
X146214286Y-71612628D02*
X146242857Y-71584057D01*
X146242857Y-71584057D02*
X146271428Y-71526914D01*
X132838095Y-68854819D02*
X132838095Y-69664342D01*
X132838095Y-69664342D02*
X132885714Y-69759580D01*
X132885714Y-69759580D02*
X132933333Y-69807200D01*
X132933333Y-69807200D02*
X133028571Y-69854819D01*
X133028571Y-69854819D02*
X133219047Y-69854819D01*
X133219047Y-69854819D02*
X133314285Y-69807200D01*
X133314285Y-69807200D02*
X133361904Y-69759580D01*
X133361904Y-69759580D02*
X133409523Y-69664342D01*
X133409523Y-69664342D02*
X133409523Y-68854819D01*
X133838095Y-68950057D02*
X133885714Y-68902438D01*
X133885714Y-68902438D02*
X133980952Y-68854819D01*
X133980952Y-68854819D02*
X134219047Y-68854819D01*
X134219047Y-68854819D02*
X134314285Y-68902438D01*
X134314285Y-68902438D02*
X134361904Y-68950057D01*
X134361904Y-68950057D02*
X134409523Y-69045295D01*
X134409523Y-69045295D02*
X134409523Y-69140533D01*
X134409523Y-69140533D02*
X134361904Y-69283390D01*
X134361904Y-69283390D02*
X133790476Y-69854819D01*
X133790476Y-69854819D02*
X134409523Y-69854819D01*
X127233333Y-81559580D02*
X127185714Y-81607200D01*
X127185714Y-81607200D02*
X127042857Y-81654819D01*
X127042857Y-81654819D02*
X126947619Y-81654819D01*
X126947619Y-81654819D02*
X126804762Y-81607200D01*
X126804762Y-81607200D02*
X126709524Y-81511961D01*
X126709524Y-81511961D02*
X126661905Y-81416723D01*
X126661905Y-81416723D02*
X126614286Y-81226247D01*
X126614286Y-81226247D02*
X126614286Y-81083390D01*
X126614286Y-81083390D02*
X126661905Y-80892914D01*
X126661905Y-80892914D02*
X126709524Y-80797676D01*
X126709524Y-80797676D02*
X126804762Y-80702438D01*
X126804762Y-80702438D02*
X126947619Y-80654819D01*
X126947619Y-80654819D02*
X127042857Y-80654819D01*
X127042857Y-80654819D02*
X127185714Y-80702438D01*
X127185714Y-80702438D02*
X127233333Y-80750057D01*
X127614286Y-80750057D02*
X127661905Y-80702438D01*
X127661905Y-80702438D02*
X127757143Y-80654819D01*
X127757143Y-80654819D02*
X127995238Y-80654819D01*
X127995238Y-80654819D02*
X128090476Y-80702438D01*
X128090476Y-80702438D02*
X128138095Y-80750057D01*
X128138095Y-80750057D02*
X128185714Y-80845295D01*
X128185714Y-80845295D02*
X128185714Y-80940533D01*
X128185714Y-80940533D02*
X128138095Y-81083390D01*
X128138095Y-81083390D02*
X127566667Y-81654819D01*
X127566667Y-81654819D02*
X128185714Y-81654819D01*
X144861905Y-87454819D02*
X144861905Y-86454819D01*
X144861905Y-86454819D02*
X145100000Y-86454819D01*
X145100000Y-86454819D02*
X145242857Y-86502438D01*
X145242857Y-86502438D02*
X145338095Y-86597676D01*
X145338095Y-86597676D02*
X145385714Y-86692914D01*
X145385714Y-86692914D02*
X145433333Y-86883390D01*
X145433333Y-86883390D02*
X145433333Y-87026247D01*
X145433333Y-87026247D02*
X145385714Y-87216723D01*
X145385714Y-87216723D02*
X145338095Y-87311961D01*
X145338095Y-87311961D02*
X145242857Y-87407200D01*
X145242857Y-87407200D02*
X145100000Y-87454819D01*
X145100000Y-87454819D02*
X144861905Y-87454819D01*
X145814286Y-86550057D02*
X145861905Y-86502438D01*
X145861905Y-86502438D02*
X145957143Y-86454819D01*
X145957143Y-86454819D02*
X146195238Y-86454819D01*
X146195238Y-86454819D02*
X146290476Y-86502438D01*
X146290476Y-86502438D02*
X146338095Y-86550057D01*
X146338095Y-86550057D02*
X146385714Y-86645295D01*
X146385714Y-86645295D02*
X146385714Y-86740533D01*
X146385714Y-86740533D02*
X146338095Y-86883390D01*
X146338095Y-86883390D02*
X145766667Y-87454819D01*
X145766667Y-87454819D02*
X146385714Y-87454819D01*
X147957143Y-76869771D02*
X147957143Y-76269771D01*
X147957143Y-76269771D02*
X148100000Y-76269771D01*
X148100000Y-76269771D02*
X148185714Y-76298342D01*
X148185714Y-76298342D02*
X148242857Y-76355485D01*
X148242857Y-76355485D02*
X148271428Y-76412628D01*
X148271428Y-76412628D02*
X148300000Y-76526914D01*
X148300000Y-76526914D02*
X148300000Y-76612628D01*
X148300000Y-76612628D02*
X148271428Y-76726914D01*
X148271428Y-76726914D02*
X148242857Y-76784057D01*
X148242857Y-76784057D02*
X148185714Y-76841200D01*
X148185714Y-76841200D02*
X148100000Y-76869771D01*
X148100000Y-76869771D02*
X147957143Y-76869771D01*
X148500000Y-76269771D02*
X148900000Y-76269771D01*
X148900000Y-76269771D02*
X148642857Y-76869771D01*
X155814285Y-71869771D02*
X155614285Y-71584057D01*
X155471428Y-71869771D02*
X155471428Y-71269771D01*
X155471428Y-71269771D02*
X155699999Y-71269771D01*
X155699999Y-71269771D02*
X155757142Y-71298342D01*
X155757142Y-71298342D02*
X155785713Y-71326914D01*
X155785713Y-71326914D02*
X155814285Y-71384057D01*
X155814285Y-71384057D02*
X155814285Y-71469771D01*
X155814285Y-71469771D02*
X155785713Y-71526914D01*
X155785713Y-71526914D02*
X155757142Y-71555485D01*
X155757142Y-71555485D02*
X155699999Y-71584057D01*
X155699999Y-71584057D02*
X155471428Y-71584057D01*
X156385713Y-71869771D02*
X156042856Y-71869771D01*
X156214285Y-71869771D02*
X156214285Y-71269771D01*
X156214285Y-71269771D02*
X156157142Y-71355485D01*
X156157142Y-71355485D02*
X156099999Y-71412628D01*
X156099999Y-71412628D02*
X156042856Y-71441200D01*
X156585714Y-71269771D02*
X156985714Y-71269771D01*
X156985714Y-71269771D02*
X156728571Y-71869771D01*
X131904761Y-82350057D02*
X131809523Y-82302438D01*
X131809523Y-82302438D02*
X131714285Y-82207200D01*
X131714285Y-82207200D02*
X131571428Y-82064342D01*
X131571428Y-82064342D02*
X131476190Y-82016723D01*
X131476190Y-82016723D02*
X131380952Y-82016723D01*
X131428571Y-82254819D02*
X131333333Y-82207200D01*
X131333333Y-82207200D02*
X131238095Y-82111961D01*
X131238095Y-82111961D02*
X131190476Y-81921485D01*
X131190476Y-81921485D02*
X131190476Y-81588152D01*
X131190476Y-81588152D02*
X131238095Y-81397676D01*
X131238095Y-81397676D02*
X131333333Y-81302438D01*
X131333333Y-81302438D02*
X131428571Y-81254819D01*
X131428571Y-81254819D02*
X131619047Y-81254819D01*
X131619047Y-81254819D02*
X131714285Y-81302438D01*
X131714285Y-81302438D02*
X131809523Y-81397676D01*
X131809523Y-81397676D02*
X131857142Y-81588152D01*
X131857142Y-81588152D02*
X131857142Y-81921485D01*
X131857142Y-81921485D02*
X131809523Y-82111961D01*
X131809523Y-82111961D02*
X131714285Y-82207200D01*
X131714285Y-82207200D02*
X131619047Y-82254819D01*
X131619047Y-82254819D02*
X131428571Y-82254819D01*
X132809523Y-82254819D02*
X132238095Y-82254819D01*
X132523809Y-82254819D02*
X132523809Y-81254819D01*
X132523809Y-81254819D02*
X132428571Y-81397676D01*
X132428571Y-81397676D02*
X132333333Y-81492914D01*
X132333333Y-81492914D02*
X132238095Y-81540533D01*
X139654819Y-81766666D02*
X139178628Y-82099999D01*
X139654819Y-82338094D02*
X138654819Y-82338094D01*
X138654819Y-82338094D02*
X138654819Y-81957142D01*
X138654819Y-81957142D02*
X138702438Y-81861904D01*
X138702438Y-81861904D02*
X138750057Y-81814285D01*
X138750057Y-81814285D02*
X138845295Y-81766666D01*
X138845295Y-81766666D02*
X138988152Y-81766666D01*
X138988152Y-81766666D02*
X139083390Y-81814285D01*
X139083390Y-81814285D02*
X139131009Y-81861904D01*
X139131009Y-81861904D02*
X139178628Y-81957142D01*
X139178628Y-81957142D02*
X139178628Y-82338094D01*
X138988152Y-80909523D02*
X139654819Y-80909523D01*
X138607200Y-81147618D02*
X139321485Y-81385713D01*
X139321485Y-81385713D02*
X139321485Y-80766666D01*
X124999999Y-68069771D02*
X124999999Y-68498342D01*
X124999999Y-68498342D02*
X124971428Y-68584057D01*
X124971428Y-68584057D02*
X124914285Y-68641200D01*
X124914285Y-68641200D02*
X124828571Y-68669771D01*
X124828571Y-68669771D02*
X124771428Y-68669771D01*
X125599999Y-68669771D02*
X125257142Y-68669771D01*
X125428571Y-68669771D02*
X125428571Y-68069771D01*
X125428571Y-68069771D02*
X125371428Y-68155485D01*
X125371428Y-68155485D02*
X125314285Y-68212628D01*
X125314285Y-68212628D02*
X125257142Y-68241200D01*
X153214285Y-71869771D02*
X153014285Y-71584057D01*
X152871428Y-71869771D02*
X152871428Y-71269771D01*
X152871428Y-71269771D02*
X153099999Y-71269771D01*
X153099999Y-71269771D02*
X153157142Y-71298342D01*
X153157142Y-71298342D02*
X153185713Y-71326914D01*
X153185713Y-71326914D02*
X153214285Y-71384057D01*
X153214285Y-71384057D02*
X153214285Y-71469771D01*
X153214285Y-71469771D02*
X153185713Y-71526914D01*
X153185713Y-71526914D02*
X153157142Y-71555485D01*
X153157142Y-71555485D02*
X153099999Y-71584057D01*
X153099999Y-71584057D02*
X152871428Y-71584057D01*
X153785713Y-71869771D02*
X153442856Y-71869771D01*
X153614285Y-71869771D02*
X153614285Y-71269771D01*
X153614285Y-71269771D02*
X153557142Y-71355485D01*
X153557142Y-71355485D02*
X153499999Y-71412628D01*
X153499999Y-71412628D02*
X153442856Y-71441200D01*
X154328571Y-71269771D02*
X154042857Y-71269771D01*
X154042857Y-71269771D02*
X154014285Y-71555485D01*
X154014285Y-71555485D02*
X154042857Y-71526914D01*
X154042857Y-71526914D02*
X154100000Y-71498342D01*
X154100000Y-71498342D02*
X154242857Y-71498342D01*
X154242857Y-71498342D02*
X154300000Y-71526914D01*
X154300000Y-71526914D02*
X154328571Y-71555485D01*
X154328571Y-71555485D02*
X154357142Y-71612628D01*
X154357142Y-71612628D02*
X154357142Y-71755485D01*
X154357142Y-71755485D02*
X154328571Y-71812628D01*
X154328571Y-71812628D02*
X154300000Y-71841200D01*
X154300000Y-71841200D02*
X154242857Y-71869771D01*
X154242857Y-71869771D02*
X154100000Y-71869771D01*
X154100000Y-71869771D02*
X154042857Y-71841200D01*
X154042857Y-71841200D02*
X154014285Y-71812628D01*
X148014285Y-71869771D02*
X147814285Y-71584057D01*
X147671428Y-71869771D02*
X147671428Y-71269771D01*
X147671428Y-71269771D02*
X147899999Y-71269771D01*
X147899999Y-71269771D02*
X147957142Y-71298342D01*
X147957142Y-71298342D02*
X147985713Y-71326914D01*
X147985713Y-71326914D02*
X148014285Y-71384057D01*
X148014285Y-71384057D02*
X148014285Y-71469771D01*
X148014285Y-71469771D02*
X147985713Y-71526914D01*
X147985713Y-71526914D02*
X147957142Y-71555485D01*
X147957142Y-71555485D02*
X147899999Y-71584057D01*
X147899999Y-71584057D02*
X147671428Y-71584057D01*
X148585713Y-71869771D02*
X148242856Y-71869771D01*
X148414285Y-71869771D02*
X148414285Y-71269771D01*
X148414285Y-71269771D02*
X148357142Y-71355485D01*
X148357142Y-71355485D02*
X148299999Y-71412628D01*
X148299999Y-71412628D02*
X148242856Y-71441200D01*
X149157142Y-71869771D02*
X148814285Y-71869771D01*
X148985714Y-71869771D02*
X148985714Y-71269771D01*
X148985714Y-71269771D02*
X148928571Y-71355485D01*
X148928571Y-71355485D02*
X148871428Y-71412628D01*
X148871428Y-71412628D02*
X148814285Y-71441200D01*
X126100000Y-72862628D02*
X126071428Y-72891200D01*
X126071428Y-72891200D02*
X125985714Y-72919771D01*
X125985714Y-72919771D02*
X125928571Y-72919771D01*
X125928571Y-72919771D02*
X125842857Y-72891200D01*
X125842857Y-72891200D02*
X125785714Y-72834057D01*
X125785714Y-72834057D02*
X125757143Y-72776914D01*
X125757143Y-72776914D02*
X125728571Y-72662628D01*
X125728571Y-72662628D02*
X125728571Y-72576914D01*
X125728571Y-72576914D02*
X125757143Y-72462628D01*
X125757143Y-72462628D02*
X125785714Y-72405485D01*
X125785714Y-72405485D02*
X125842857Y-72348342D01*
X125842857Y-72348342D02*
X125928571Y-72319771D01*
X125928571Y-72319771D02*
X125985714Y-72319771D01*
X125985714Y-72319771D02*
X126071428Y-72348342D01*
X126071428Y-72348342D02*
X126100000Y-72376914D01*
X126671428Y-72919771D02*
X126328571Y-72919771D01*
X126500000Y-72919771D02*
X126500000Y-72319771D01*
X126500000Y-72319771D02*
X126442857Y-72405485D01*
X126442857Y-72405485D02*
X126385714Y-72462628D01*
X126385714Y-72462628D02*
X126328571Y-72491200D01*
X138150057Y-87095238D02*
X138102438Y-87190476D01*
X138102438Y-87190476D02*
X138007200Y-87285714D01*
X138007200Y-87285714D02*
X137864342Y-87428571D01*
X137864342Y-87428571D02*
X137816723Y-87523809D01*
X137816723Y-87523809D02*
X137816723Y-87619047D01*
X138054819Y-87571428D02*
X138007200Y-87666666D01*
X138007200Y-87666666D02*
X137911961Y-87761904D01*
X137911961Y-87761904D02*
X137721485Y-87809523D01*
X137721485Y-87809523D02*
X137388152Y-87809523D01*
X137388152Y-87809523D02*
X137197676Y-87761904D01*
X137197676Y-87761904D02*
X137102438Y-87666666D01*
X137102438Y-87666666D02*
X137054819Y-87571428D01*
X137054819Y-87571428D02*
X137054819Y-87380952D01*
X137054819Y-87380952D02*
X137102438Y-87285714D01*
X137102438Y-87285714D02*
X137197676Y-87190476D01*
X137197676Y-87190476D02*
X137388152Y-87142857D01*
X137388152Y-87142857D02*
X137721485Y-87142857D01*
X137721485Y-87142857D02*
X137911961Y-87190476D01*
X137911961Y-87190476D02*
X138007200Y-87285714D01*
X138007200Y-87285714D02*
X138054819Y-87380952D01*
X138054819Y-87380952D02*
X138054819Y-87571428D01*
X137150057Y-86761904D02*
X137102438Y-86714285D01*
X137102438Y-86714285D02*
X137054819Y-86619047D01*
X137054819Y-86619047D02*
X137054819Y-86380952D01*
X137054819Y-86380952D02*
X137102438Y-86285714D01*
X137102438Y-86285714D02*
X137150057Y-86238095D01*
X137150057Y-86238095D02*
X137245295Y-86190476D01*
X137245295Y-86190476D02*
X137340533Y-86190476D01*
X137340533Y-86190476D02*
X137483390Y-86238095D01*
X137483390Y-86238095D02*
X138054819Y-86809523D01*
X138054819Y-86809523D02*
X138054819Y-86190476D01*
X150557143Y-76869771D02*
X150557143Y-76269771D01*
X150557143Y-76269771D02*
X150700000Y-76269771D01*
X150700000Y-76269771D02*
X150785714Y-76298342D01*
X150785714Y-76298342D02*
X150842857Y-76355485D01*
X150842857Y-76355485D02*
X150871428Y-76412628D01*
X150871428Y-76412628D02*
X150900000Y-76526914D01*
X150900000Y-76526914D02*
X150900000Y-76612628D01*
X150900000Y-76612628D02*
X150871428Y-76726914D01*
X150871428Y-76726914D02*
X150842857Y-76784057D01*
X150842857Y-76784057D02*
X150785714Y-76841200D01*
X150785714Y-76841200D02*
X150700000Y-76869771D01*
X150700000Y-76869771D02*
X150557143Y-76869771D01*
X151185714Y-76869771D02*
X151300000Y-76869771D01*
X151300000Y-76869771D02*
X151357143Y-76841200D01*
X151357143Y-76841200D02*
X151385714Y-76812628D01*
X151385714Y-76812628D02*
X151442857Y-76726914D01*
X151442857Y-76726914D02*
X151471428Y-76612628D01*
X151471428Y-76612628D02*
X151471428Y-76384057D01*
X151471428Y-76384057D02*
X151442857Y-76326914D01*
X151442857Y-76326914D02*
X151414286Y-76298342D01*
X151414286Y-76298342D02*
X151357143Y-76269771D01*
X151357143Y-76269771D02*
X151242857Y-76269771D01*
X151242857Y-76269771D02*
X151185714Y-76298342D01*
X151185714Y-76298342D02*
X151157143Y-76326914D01*
X151157143Y-76326914D02*
X151128571Y-76384057D01*
X151128571Y-76384057D02*
X151128571Y-76526914D01*
X151128571Y-76526914D02*
X151157143Y-76584057D01*
X151157143Y-76584057D02*
X151185714Y-76612628D01*
X151185714Y-76612628D02*
X151242857Y-76641200D01*
X151242857Y-76641200D02*
X151357143Y-76641200D01*
X151357143Y-76641200D02*
X151414286Y-76612628D01*
X151414286Y-76612628D02*
X151442857Y-76584057D01*
X151442857Y-76584057D02*
X151471428Y-76526914D01*
X126638095Y-78054819D02*
X126638095Y-78864342D01*
X126638095Y-78864342D02*
X126685714Y-78959580D01*
X126685714Y-78959580D02*
X126733333Y-79007200D01*
X126733333Y-79007200D02*
X126828571Y-79054819D01*
X126828571Y-79054819D02*
X127019047Y-79054819D01*
X127019047Y-79054819D02*
X127114285Y-79007200D01*
X127114285Y-79007200D02*
X127161904Y-78959580D01*
X127161904Y-78959580D02*
X127209523Y-78864342D01*
X127209523Y-78864342D02*
X127209523Y-78054819D01*
X128209523Y-79054819D02*
X127638095Y-79054819D01*
X127923809Y-79054819D02*
X127923809Y-78054819D01*
X127923809Y-78054819D02*
X127828571Y-78197676D01*
X127828571Y-78197676D02*
X127733333Y-78292914D01*
X127733333Y-78292914D02*
X127638095Y-78340533D01*
X145357143Y-76869771D02*
X145357143Y-76269771D01*
X145357143Y-76269771D02*
X145500000Y-76269771D01*
X145500000Y-76269771D02*
X145585714Y-76298342D01*
X145585714Y-76298342D02*
X145642857Y-76355485D01*
X145642857Y-76355485D02*
X145671428Y-76412628D01*
X145671428Y-76412628D02*
X145700000Y-76526914D01*
X145700000Y-76526914D02*
X145700000Y-76612628D01*
X145700000Y-76612628D02*
X145671428Y-76726914D01*
X145671428Y-76726914D02*
X145642857Y-76784057D01*
X145642857Y-76784057D02*
X145585714Y-76841200D01*
X145585714Y-76841200D02*
X145500000Y-76869771D01*
X145500000Y-76869771D02*
X145357143Y-76869771D01*
X146242857Y-76269771D02*
X145957143Y-76269771D01*
X145957143Y-76269771D02*
X145928571Y-76555485D01*
X145928571Y-76555485D02*
X145957143Y-76526914D01*
X145957143Y-76526914D02*
X146014286Y-76498342D01*
X146014286Y-76498342D02*
X146157143Y-76498342D01*
X146157143Y-76498342D02*
X146214286Y-76526914D01*
X146214286Y-76526914D02*
X146242857Y-76555485D01*
X146242857Y-76555485D02*
X146271428Y-76612628D01*
X146271428Y-76612628D02*
X146271428Y-76755485D01*
X146271428Y-76755485D02*
X146242857Y-76812628D01*
X146242857Y-76812628D02*
X146214286Y-76841200D01*
X146214286Y-76841200D02*
X146157143Y-76869771D01*
X146157143Y-76869771D02*
X146014286Y-76869771D01*
X146014286Y-76869771D02*
X145957143Y-76841200D01*
X145957143Y-76841200D02*
X145928571Y-76812628D01*
X143100000Y-71869771D02*
X142900000Y-71584057D01*
X142757143Y-71869771D02*
X142757143Y-71269771D01*
X142757143Y-71269771D02*
X142985714Y-71269771D01*
X142985714Y-71269771D02*
X143042857Y-71298342D01*
X143042857Y-71298342D02*
X143071428Y-71326914D01*
X143071428Y-71326914D02*
X143100000Y-71384057D01*
X143100000Y-71384057D02*
X143100000Y-71469771D01*
X143100000Y-71469771D02*
X143071428Y-71526914D01*
X143071428Y-71526914D02*
X143042857Y-71555485D01*
X143042857Y-71555485D02*
X142985714Y-71584057D01*
X142985714Y-71584057D02*
X142757143Y-71584057D01*
X143300000Y-71269771D02*
X143700000Y-71269771D01*
X143700000Y-71269771D02*
X143442857Y-71869771D01*
X150614285Y-71869771D02*
X150414285Y-71584057D01*
X150271428Y-71869771D02*
X150271428Y-71269771D01*
X150271428Y-71269771D02*
X150499999Y-71269771D01*
X150499999Y-71269771D02*
X150557142Y-71298342D01*
X150557142Y-71298342D02*
X150585713Y-71326914D01*
X150585713Y-71326914D02*
X150614285Y-71384057D01*
X150614285Y-71384057D02*
X150614285Y-71469771D01*
X150614285Y-71469771D02*
X150585713Y-71526914D01*
X150585713Y-71526914D02*
X150557142Y-71555485D01*
X150557142Y-71555485D02*
X150499999Y-71584057D01*
X150499999Y-71584057D02*
X150271428Y-71584057D01*
X151185713Y-71869771D02*
X150842856Y-71869771D01*
X151014285Y-71869771D02*
X151014285Y-71269771D01*
X151014285Y-71269771D02*
X150957142Y-71355485D01*
X150957142Y-71355485D02*
X150899999Y-71412628D01*
X150899999Y-71412628D02*
X150842856Y-71441200D01*
X151385714Y-71269771D02*
X151757142Y-71269771D01*
X151757142Y-71269771D02*
X151557142Y-71498342D01*
X151557142Y-71498342D02*
X151642857Y-71498342D01*
X151642857Y-71498342D02*
X151700000Y-71526914D01*
X151700000Y-71526914D02*
X151728571Y-71555485D01*
X151728571Y-71555485D02*
X151757142Y-71612628D01*
X151757142Y-71612628D02*
X151757142Y-71755485D01*
X151757142Y-71755485D02*
X151728571Y-71812628D01*
X151728571Y-71812628D02*
X151700000Y-71841200D01*
X151700000Y-71841200D02*
X151642857Y-71869771D01*
X151642857Y-71869771D02*
X151471428Y-71869771D01*
X151471428Y-71869771D02*
X151414285Y-71841200D01*
X151414285Y-71841200D02*
X151385714Y-71812628D01*
X145654819Y-82566666D02*
X145178628Y-82899999D01*
X145654819Y-83138094D02*
X144654819Y-83138094D01*
X144654819Y-83138094D02*
X144654819Y-82757142D01*
X144654819Y-82757142D02*
X144702438Y-82661904D01*
X144702438Y-82661904D02*
X144750057Y-82614285D01*
X144750057Y-82614285D02*
X144845295Y-82566666D01*
X144845295Y-82566666D02*
X144988152Y-82566666D01*
X144988152Y-82566666D02*
X145083390Y-82614285D01*
X145083390Y-82614285D02*
X145131009Y-82661904D01*
X145131009Y-82661904D02*
X145178628Y-82757142D01*
X145178628Y-82757142D02*
X145178628Y-83138094D01*
X144654819Y-81709523D02*
X144654819Y-81899999D01*
X144654819Y-81899999D02*
X144702438Y-81995237D01*
X144702438Y-81995237D02*
X144750057Y-82042856D01*
X144750057Y-82042856D02*
X144892914Y-82138094D01*
X144892914Y-82138094D02*
X145083390Y-82185713D01*
X145083390Y-82185713D02*
X145464342Y-82185713D01*
X145464342Y-82185713D02*
X145559580Y-82138094D01*
X145559580Y-82138094D02*
X145607200Y-82090475D01*
X145607200Y-82090475D02*
X145654819Y-81995237D01*
X145654819Y-81995237D02*
X145654819Y-81804761D01*
X145654819Y-81804761D02*
X145607200Y-81709523D01*
X145607200Y-81709523D02*
X145559580Y-81661904D01*
X145559580Y-81661904D02*
X145464342Y-81614285D01*
X145464342Y-81614285D02*
X145226247Y-81614285D01*
X145226247Y-81614285D02*
X145131009Y-81661904D01*
X145131009Y-81661904D02*
X145083390Y-81709523D01*
X145083390Y-81709523D02*
X145035771Y-81804761D01*
X145035771Y-81804761D02*
X145035771Y-81995237D01*
X145035771Y-81995237D02*
X145083390Y-82090475D01*
X145083390Y-82090475D02*
X145131009Y-82138094D01*
X145131009Y-82138094D02*
X145226247Y-82185713D01*
X152871428Y-76869771D02*
X152871428Y-76269771D01*
X152871428Y-76269771D02*
X153014285Y-76269771D01*
X153014285Y-76269771D02*
X153099999Y-76298342D01*
X153099999Y-76298342D02*
X153157142Y-76355485D01*
X153157142Y-76355485D02*
X153185713Y-76412628D01*
X153185713Y-76412628D02*
X153214285Y-76526914D01*
X153214285Y-76526914D02*
X153214285Y-76612628D01*
X153214285Y-76612628D02*
X153185713Y-76726914D01*
X153185713Y-76726914D02*
X153157142Y-76784057D01*
X153157142Y-76784057D02*
X153099999Y-76841200D01*
X153099999Y-76841200D02*
X153014285Y-76869771D01*
X153014285Y-76869771D02*
X152871428Y-76869771D01*
X153785713Y-76869771D02*
X153442856Y-76869771D01*
X153614285Y-76869771D02*
X153614285Y-76269771D01*
X153614285Y-76269771D02*
X153557142Y-76355485D01*
X153557142Y-76355485D02*
X153499999Y-76412628D01*
X153499999Y-76412628D02*
X153442856Y-76441200D01*
X154357142Y-76869771D02*
X154014285Y-76869771D01*
X154185714Y-76869771D02*
X154185714Y-76269771D01*
X154185714Y-76269771D02*
X154128571Y-76355485D01*
X154128571Y-76355485D02*
X154071428Y-76412628D01*
X154071428Y-76412628D02*
X154014285Y-76441200D01*
X149066667Y-87407200D02*
X149209524Y-87454819D01*
X149209524Y-87454819D02*
X149447619Y-87454819D01*
X149447619Y-87454819D02*
X149542857Y-87407200D01*
X149542857Y-87407200D02*
X149590476Y-87359580D01*
X149590476Y-87359580D02*
X149638095Y-87264342D01*
X149638095Y-87264342D02*
X149638095Y-87169104D01*
X149638095Y-87169104D02*
X149590476Y-87073866D01*
X149590476Y-87073866D02*
X149542857Y-87026247D01*
X149542857Y-87026247D02*
X149447619Y-86978628D01*
X149447619Y-86978628D02*
X149257143Y-86931009D01*
X149257143Y-86931009D02*
X149161905Y-86883390D01*
X149161905Y-86883390D02*
X149114286Y-86835771D01*
X149114286Y-86835771D02*
X149066667Y-86740533D01*
X149066667Y-86740533D02*
X149066667Y-86645295D01*
X149066667Y-86645295D02*
X149114286Y-86550057D01*
X149114286Y-86550057D02*
X149161905Y-86502438D01*
X149161905Y-86502438D02*
X149257143Y-86454819D01*
X149257143Y-86454819D02*
X149495238Y-86454819D01*
X149495238Y-86454819D02*
X149638095Y-86502438D01*
X149971429Y-86454819D02*
X150209524Y-87454819D01*
X150209524Y-87454819D02*
X150400000Y-86740533D01*
X150400000Y-86740533D02*
X150590476Y-87454819D01*
X150590476Y-87454819D02*
X150828572Y-86454819D01*
X151733333Y-87454819D02*
X151161905Y-87454819D01*
X151447619Y-87454819D02*
X151447619Y-86454819D01*
X151447619Y-86454819D02*
X151352381Y-86597676D01*
X151352381Y-86597676D02*
X151257143Y-86692914D01*
X151257143Y-86692914D02*
X151161905Y-86740533D01*
X155471428Y-76869771D02*
X155471428Y-76269771D01*
X155471428Y-76269771D02*
X155614285Y-76269771D01*
X155614285Y-76269771D02*
X155699999Y-76298342D01*
X155699999Y-76298342D02*
X155757142Y-76355485D01*
X155757142Y-76355485D02*
X155785713Y-76412628D01*
X155785713Y-76412628D02*
X155814285Y-76526914D01*
X155814285Y-76526914D02*
X155814285Y-76612628D01*
X155814285Y-76612628D02*
X155785713Y-76726914D01*
X155785713Y-76726914D02*
X155757142Y-76784057D01*
X155757142Y-76784057D02*
X155699999Y-76841200D01*
X155699999Y-76841200D02*
X155614285Y-76869771D01*
X155614285Y-76869771D02*
X155471428Y-76869771D01*
X156385713Y-76869771D02*
X156042856Y-76869771D01*
X156214285Y-76869771D02*
X156214285Y-76269771D01*
X156214285Y-76269771D02*
X156157142Y-76355485D01*
X156157142Y-76355485D02*
X156099999Y-76412628D01*
X156099999Y-76412628D02*
X156042856Y-76441200D01*
X156585714Y-76269771D02*
X156957142Y-76269771D01*
X156957142Y-76269771D02*
X156757142Y-76498342D01*
X156757142Y-76498342D02*
X156842857Y-76498342D01*
X156842857Y-76498342D02*
X156900000Y-76526914D01*
X156900000Y-76526914D02*
X156928571Y-76555485D01*
X156928571Y-76555485D02*
X156957142Y-76612628D01*
X156957142Y-76612628D02*
X156957142Y-76755485D01*
X156957142Y-76755485D02*
X156928571Y-76812628D01*
X156928571Y-76812628D02*
X156900000Y-76841200D01*
X156900000Y-76841200D02*
X156842857Y-76869771D01*
X156842857Y-76869771D02*
X156671428Y-76869771D01*
X156671428Y-76869771D02*
X156614285Y-76841200D01*
X156614285Y-76841200D02*
X156585714Y-76812628D01*
X129233333Y-81454819D02*
X128900000Y-80978628D01*
X128661905Y-81454819D02*
X128661905Y-80454819D01*
X128661905Y-80454819D02*
X129042857Y-80454819D01*
X129042857Y-80454819D02*
X129138095Y-80502438D01*
X129138095Y-80502438D02*
X129185714Y-80550057D01*
X129185714Y-80550057D02*
X129233333Y-80645295D01*
X129233333Y-80645295D02*
X129233333Y-80788152D01*
X129233333Y-80788152D02*
X129185714Y-80883390D01*
X129185714Y-80883390D02*
X129138095Y-80931009D01*
X129138095Y-80931009D02*
X129042857Y-80978628D01*
X129042857Y-80978628D02*
X128661905Y-80978628D01*
X129566667Y-80454819D02*
X130185714Y-80454819D01*
X130185714Y-80454819D02*
X129852381Y-80835771D01*
X129852381Y-80835771D02*
X129995238Y-80835771D01*
X129995238Y-80835771D02*
X130090476Y-80883390D01*
X130090476Y-80883390D02*
X130138095Y-80931009D01*
X130138095Y-80931009D02*
X130185714Y-81026247D01*
X130185714Y-81026247D02*
X130185714Y-81264342D01*
X130185714Y-81264342D02*
X130138095Y-81359580D01*
X130138095Y-81359580D02*
X130090476Y-81407200D01*
X130090476Y-81407200D02*
X129995238Y-81454819D01*
X129995238Y-81454819D02*
X129709524Y-81454819D01*
X129709524Y-81454819D02*
X129614286Y-81407200D01*
X129614286Y-81407200D02*
X129566667Y-81359580D01*
D14*
X128690000Y-75922936D02*
X128690000Y-77377064D01*
X130510000Y-75922936D02*
X130510000Y-77377064D01*
X139890000Y-77277064D02*
X139890000Y-75822936D01*
X141710000Y-77277064D02*
X141710000Y-75822936D01*
X124800000Y-85200000D02*
X127200000Y-85200000D01*
X124800000Y-87600000D02*
X124800000Y-85200000D01*
X127200000Y-85200000D02*
X127200000Y-87600000D01*
X127200000Y-87600000D02*
X124800000Y-87600000D01*
X142065000Y-75000000D02*
X142065000Y-79060000D01*
X142065000Y-79060000D02*
X144335000Y-79060000D01*
X144335000Y-79060000D02*
X144335000Y-75000000D01*
X136727064Y-80290000D02*
X135272936Y-80290000D01*
X136727064Y-82110000D02*
X135272936Y-82110000D01*
X121600000Y-85200000D02*
X124000000Y-85200000D01*
X121600000Y-87600000D02*
X121600000Y-85200000D01*
X124000000Y-85200000D02*
X124000000Y-87600000D01*
X124000000Y-87600000D02*
X121600000Y-87600000D01*
X121490000Y-75777064D02*
X121490000Y-74322936D01*
X123310000Y-75777064D02*
X123310000Y-74322936D01*
X129890000Y-72277064D02*
X129890000Y-70822936D01*
X131710000Y-72277064D02*
X131710000Y-70822936D01*
X121540000Y-78515000D02*
X121540000Y-80785000D01*
X121540000Y-80785000D02*
X125600000Y-80785000D01*
X125600000Y-78515000D02*
X121540000Y-78515000D01*
X130680000Y-68580000D02*
X130680000Y-67200000D01*
X132060000Y-68580000D02*
X130680000Y-68580000D01*
X133330000Y-65820000D02*
X146140000Y-65820000D01*
X133330000Y-68580000D02*
X133330000Y-65820000D01*
X133330000Y-68580000D02*
X146140000Y-68580000D01*
X146140000Y-68580000D02*
X146140000Y-65820000D01*
X144890000Y-72327064D02*
X144890000Y-70872936D01*
X146710000Y-72327064D02*
X146710000Y-70872936D01*
X135800000Y-70365000D02*
X133850000Y-70365000D01*
X135800000Y-70365000D02*
X137750000Y-70365000D01*
X135800000Y-79235000D02*
X133850000Y-79235000D01*
X135800000Y-79235000D02*
X137750000Y-79235000D01*
X133100000Y-70430000D02*
X132860000Y-70100000D01*
X133340000Y-70100000D01*
X133100000Y-70430000D01*
G36*
X133100000Y-70430000D02*
G01*
X132860000Y-70100000D01*
X133340000Y-70100000D01*
X133100000Y-70430000D01*
G37*
X124711252Y-81340000D02*
X123288748Y-81340000D01*
X124711252Y-83160000D02*
X123288748Y-83160000D01*
X141220000Y-85860000D02*
X141220000Y-84400000D01*
X141220000Y-85860000D02*
X142150000Y-85860000D01*
X144380000Y-85060000D02*
X144380000Y-84260000D01*
X144380000Y-85060000D02*
X144380000Y-85860000D01*
X144380000Y-85860000D02*
X143450000Y-85860000D01*
X144740000Y-84000000D02*
X144410000Y-83760000D01*
X144740000Y-83520000D01*
X144740000Y-84000000D01*
G36*
X144740000Y-84000000D02*
G01*
X144410000Y-83760000D01*
X144740000Y-83520000D01*
X144740000Y-84000000D01*
G37*
X147265000Y-75000000D02*
X147265000Y-79060000D01*
X147265000Y-79060000D02*
X149535000Y-79060000D01*
X149535000Y-79060000D02*
X149535000Y-75000000D01*
X155290000Y-72327064D02*
X155290000Y-70872936D01*
X157110000Y-72327064D02*
X157110000Y-70872936D01*
X130620000Y-84440000D02*
X131550000Y-84440000D01*
X130620000Y-85240000D02*
X130620000Y-84440000D01*
X130620000Y-85240000D02*
X130620000Y-86040000D01*
X133780000Y-84440000D02*
X132850000Y-84440000D01*
X133780000Y-84440000D02*
X133780000Y-85900000D01*
X130590000Y-86540000D02*
X130260000Y-86780000D01*
X130260000Y-86300000D01*
X130590000Y-86540000D01*
G36*
X130590000Y-86540000D02*
G01*
X130260000Y-86780000D01*
X130260000Y-86300000D01*
X130590000Y-86540000D01*
G37*
X138690000Y-84272936D02*
X138690000Y-85727064D01*
X140510000Y-84272936D02*
X140510000Y-85727064D01*
X121200000Y-65562500D02*
X121200000Y-65812500D01*
X121200000Y-68112500D02*
X121200000Y-69962500D01*
X121200000Y-69962500D02*
X121650000Y-69962500D01*
X126800000Y-70512500D02*
X126350000Y-70512500D01*
X126800000Y-70512500D02*
X126800000Y-70062500D01*
X129000000Y-65562500D02*
X129000000Y-65812500D01*
X129000000Y-68112500D02*
X129000000Y-69962500D01*
X129000000Y-69962500D02*
X128550000Y-69962500D01*
X152690000Y-72327064D02*
X152690000Y-70872936D01*
X154510000Y-72327064D02*
X154510000Y-70872936D01*
X147490000Y-72327064D02*
X147490000Y-70872936D01*
X149310000Y-72327064D02*
X149310000Y-70872936D01*
X126911252Y-71740000D02*
X125488748Y-71740000D01*
X126911252Y-73560000D02*
X125488748Y-73560000D01*
X134820000Y-85960000D02*
X134820000Y-84500000D01*
X134820000Y-85960000D02*
X135750000Y-85960000D01*
X137980000Y-85160000D02*
X137980000Y-84360000D01*
X137980000Y-85160000D02*
X137980000Y-85960000D01*
X137980000Y-85960000D02*
X137050000Y-85960000D01*
X138340000Y-84100000D02*
X138010000Y-83860000D01*
X138340000Y-83620000D01*
X138340000Y-84100000D01*
G36*
X138340000Y-84100000D02*
G01*
X138010000Y-83860000D01*
X138340000Y-83620000D01*
X138340000Y-84100000D01*
G37*
X149865000Y-75000000D02*
X149865000Y-79060000D01*
X149865000Y-79060000D02*
X152135000Y-79060000D01*
X152135000Y-79060000D02*
X152135000Y-75000000D01*
X126062500Y-74740000D02*
X125262500Y-74740000D01*
X126062500Y-74740000D02*
X126862500Y-74740000D01*
X126062500Y-77860000D02*
X125262500Y-77860000D01*
X126062500Y-77860000D02*
X126862500Y-77860000D01*
X124762500Y-74790000D02*
X124522500Y-74460000D01*
X125002500Y-74460000D01*
X124762500Y-74790000D01*
G36*
X124762500Y-74790000D02*
G01*
X124522500Y-74460000D01*
X125002500Y-74460000D01*
X124762500Y-74790000D01*
G37*
X144665000Y-75000000D02*
X144665000Y-79060000D01*
X144665000Y-79060000D02*
X146935000Y-79060000D01*
X146935000Y-79060000D02*
X146935000Y-75000000D01*
X142290000Y-72327064D02*
X142290000Y-70872936D01*
X144110000Y-72327064D02*
X144110000Y-70872936D01*
X150090000Y-72327064D02*
X150090000Y-70872936D01*
X151910000Y-72327064D02*
X151910000Y-70872936D01*
X141472936Y-79490000D02*
X142927064Y-79490000D01*
X141472936Y-81310000D02*
X142927064Y-81310000D01*
X152465000Y-75000000D02*
X152465000Y-79060000D01*
X152465000Y-79060000D02*
X154735000Y-79060000D01*
X154735000Y-79060000D02*
X154735000Y-75000000D01*
X147170000Y-79770000D02*
X153630000Y-79770000D01*
X147170000Y-79800000D02*
X147170000Y-79770000D01*
X147170000Y-81700000D02*
X147170000Y-84300000D01*
X147170000Y-86230000D02*
X147170000Y-86200000D01*
X147170000Y-86230000D02*
X153630000Y-86230000D01*
X153630000Y-79770000D02*
X153630000Y-79800000D01*
X153630000Y-81700000D02*
X153630000Y-84300000D01*
X153630000Y-86230000D02*
X153630000Y-86200000D01*
X155065000Y-75000000D02*
X155065000Y-79060000D01*
X155065000Y-79060000D02*
X157335000Y-79060000D01*
X157335000Y-79060000D02*
X157335000Y-75000000D01*
X127890000Y-84777064D02*
X127890000Y-83322936D01*
X129710000Y-84777064D02*
X129710000Y-83322936D01*
%LPC*%
D15*
X129600000Y-75100000D03*
X129600000Y-78200000D03*
D16*
X140800000Y-78100000D03*
X140800000Y-75000000D03*
D17*
X126000000Y-86400000D03*
D18*
X143200000Y-78087500D03*
X143200000Y-75112500D03*
D19*
X137550000Y-81200000D03*
X134450000Y-81200000D03*
D17*
X122800000Y-86400000D03*
D16*
X122400000Y-76600000D03*
X122400000Y-73500000D03*
X130800000Y-73100000D03*
X130800000Y-70000000D03*
D20*
X122512500Y-79650000D03*
X125487500Y-79650000D03*
D21*
X132060000Y-67200000D03*
D22*
X134600000Y-67200000D03*
X137140000Y-67200000D03*
X139680000Y-67200000D03*
X142220000Y-67200000D03*
X144760000Y-67200000D03*
D16*
X145800000Y-73150000D03*
X145800000Y-70050000D03*
D23*
X133325000Y-70990000D03*
X133325000Y-72260000D03*
X133325000Y-73530000D03*
X133325000Y-74800000D03*
X133325000Y-76070000D03*
X133325000Y-77340000D03*
X133325000Y-78610000D03*
X138275000Y-78610000D03*
X138275000Y-77340000D03*
X138275000Y-76070000D03*
X138275000Y-74800000D03*
X138275000Y-73530000D03*
X138275000Y-72260000D03*
X138275000Y-70990000D03*
D24*
X125562500Y-82250000D03*
X122437500Y-82250000D03*
D25*
X143750000Y-83600000D03*
X141850000Y-83600000D03*
X142800000Y-86600000D03*
D18*
X148400000Y-78087500D03*
X148400000Y-75112500D03*
D16*
X156200000Y-73150000D03*
X156200000Y-70050000D03*
D26*
X131250000Y-86700000D03*
X133150000Y-86700000D03*
X132200000Y-83700000D03*
D15*
X139600000Y-83450000D03*
X139600000Y-86550000D03*
D27*
X126400000Y-69662500D03*
X125750000Y-69662500D03*
X125100000Y-69662500D03*
X124450000Y-69662500D03*
X123800000Y-69662500D03*
D28*
X128600000Y-66962500D03*
D29*
X128000000Y-66962500D03*
D30*
X127600000Y-69662500D03*
D31*
X126100000Y-66962500D03*
X124100000Y-66962500D03*
D30*
X122600000Y-69662500D03*
D29*
X122200000Y-66962500D03*
D28*
X121600000Y-66962500D03*
D16*
X153600000Y-73150000D03*
X153600000Y-70050000D03*
X148400000Y-73150000D03*
X148400000Y-70050000D03*
D24*
X127762500Y-72650000D03*
X124637500Y-72650000D03*
D25*
X137350000Y-83700000D03*
X135450000Y-83700000D03*
X136400000Y-86700000D03*
D18*
X151000000Y-78087500D03*
X151000000Y-75112500D03*
D32*
X124925000Y-75350000D03*
X124925000Y-76300000D03*
X124925000Y-77250000D03*
X127200000Y-77250000D03*
X127200000Y-75350000D03*
D18*
X145800000Y-78087500D03*
X145800000Y-75112500D03*
D16*
X143200000Y-73150000D03*
X143200000Y-70050000D03*
X151000000Y-73150000D03*
X151000000Y-70050000D03*
D33*
X140650000Y-80400000D03*
X143750000Y-80400000D03*
D18*
X153600000Y-78087500D03*
X153600000Y-75112500D03*
D34*
X146420000Y-80750000D03*
X154380000Y-80750000D03*
X146420000Y-85250000D03*
X154380000Y-85250000D03*
D18*
X156200000Y-78087500D03*
X156200000Y-75112500D03*
D16*
X128800000Y-85600000D03*
X128800000Y-82500000D03*
%LPD*%
M02*
